P1
# CREATOR: GIMP PNM Filter Version 1.1
128 96
0000000000000000000000000000000000000000000000000000000000000000000000
0000000000000000000000000000000000000000000000000000000000000000000000
0000000000000000000000000000000000000000000000000000000000000000000000
0000000000000000000000000000000000000000000000000000000000000000000000
0000000000000000000000000000000000000000000000000000000000000000000000
0000000000000000000000000000000000000000000000000000000000000000000000
0000000000000000000000000000000000000000000000000000000000000000000000
0000000000000000000000000000000000000000000000000000000000000000000000
0000000000000000000000000000000000000000000000000000000000000000000000
0000000000000000000000000000000000000000000000000000000000000000000001
1111111111000000000000000000000000000000000000000000000000000000000000
0000000000000000000000000000000000000000000000000000011111111111111111
1100000000000000000000000000000000000000000000000000000000000000000000
0000000000000000000000000000000000000001111111111111111111111100000000
0000000000000000000000000000000000000000000000000000000000000000000000
0000000000000000000000000111111111111111111111111111000000000000000000
0000000000000000000000000000000000000000000000000000000000000000000000
0000000000011111111111111111111111111111110000000000000000000000000000
0000000000000000000000000000000000000000000000000000000000000000000111
1111111111111111111111111111111100000000000000000000000000000000000000
0000000000000000000000000000000000000000000000000000001111111111111111
1111111111111111111110000000000000000000000000000000000000000000000000
0000000000000000000000000000000000000000011111111111111111111111111111
1111111111000000000000000000000000000000000000000000000000000000000000
0000000000000000000000000000111111111111111111111111111111111111111110
0000000000000000000000000000000000000000000000000000000000000000000000
0000000000000001111111111111111111111111111111111111111111000000000000
0000000000000000000000000000000000000000000000000000000000000000000000
0011111111111111111111111111111111111111111111100000000000000000000000
0000000000000000000000000000000000000000000000000000000000011111111111
1111111111111111111111111111111111110000000000000000000000000000000000
0000000000000000000000000000000000000000000000111111111111111111111111
1111111111111111111111111000000000000000000000000000000000000000000000
0000000000000000000000000000000000111111111111111111111111111111111111
1111111111111000000000000000000000000000000000000000000000000000000000
0000000000000000000001111111111111111111111111111111111111111111111111
1100000000000000000000000000000000000000000000000000000000000000000000
0000000001111111111111111111111111111111111111111111111111110000000000
0000000000000000000000000000000000000000000000000000000000000000001111
1111111111111111111111111111111111111111111111111000000000000000000000
0000000000000000000000000000000000000000000000000000001111111111111111
1111111111111111111111111111111111111000000000000000000000000000000000
0000000000000000000000000000000000000000011111111111111111111111111111
1111111111111111111111111100000000000000000000000000000000000000000000
0000000000000000000000000000011111111111111111111111111111111111111111
1111111111111100000000000000000000000000000000000000000000000000000000
0000000000000000111111111111111111111111111111111111111111111111111111
1110000000000000000000000000000000000000000000000000000000000000000000
0000111111111111111111111111111111111111111111111111111111111000000000
0000000000000000000000000000000000000000000000000000000000000011111111
1111111111111111111111111111111111111111111111111000000000000000000000
0000000000000000000000000000000000000000000000000011111111111111111111
1111111111111111111111111111111111111000000000000000000000000000000000
0000000000000000000000000000000000000111111111111111111111111111111111
1111111111111111111111111100000000000000000000000000000000000000000000
0000000000000000000000000111111111110001111111111111111111000111111111
1111111111111100000000000000000000000000000000000000000000000000000000
0000000000000111111111110001111000111111111111000111100011111111111111
1100000000000000000000000000000000000000000000000000000000000000000000
0111111111110001111000111111111111000111100011111111111111110000000000
0000000000000000000000000000000000000000000000000000000000011111111111
0001111000111111111111000111100011111111111111110000000000000000000000
0000000000000000000000000000000000000000000000011111111111000000000000
0000111111000000000000000011111111110000000000000000000000000000000000
0000000000000000000000000000000000011111111111000000000000000011111100
0000000000000011111111110000000000000000000000000000000000000000000000
0000000000000000000000011111111111111111111111111111111111111111111111
1111111111110000000000000000000000000000000000000000000000000000000000
0000000000011111111111111111111111111111111111111111111111111111111111
0000000000000000000000000000000000000000000000000000000000000000000001
1111111111111111111111111111111111111111111111111111111111000000000000
0000000000000000000000000000000000000000000000000000000000111111111111
1111111111111111111111111111111111111111111110000000000000000000000000
0000000000000000000000000000000000000000000000111111111111111111111111
1111111111111111111111111111111110000000000000000000000000000000000000
0000000000000000000000000000000000111111111111111111111111111111111111
1111111111111111111110000000000000000000000000000000000000000000000000
0000000000000000000000111111111111111111111111111111111111111111111111
1111111110000000000000000000000000000000000000000000000000000000000000
0000000000011111111111111111111111111111111111111111111111111111110000
0000000000000000000000000000000000000000000000000000000000000000000001
1111111111111111111111111111111111111111111111111111110000000000000000
0000000000000000000000000000000000000000000000000000000001111111111111
1111111111111111111111111111111111111111110000000000000000000000000000
0000000000000000000000000000000000000000000000111111111111111111111111
1111111111111111111111111111100000000000000000000000000000000000000000
0000000000000000000000000000000000111111111111111111111111111111111111
1111111111111111100000000000000000000000000000000000000000000000000000
0000000000000000000000011111111111111111111111111111111111111111111111
1111000000000000000000000000000000000000000000000000000000000000000000
0000000000011111111111111111111111111111111111111111111111111100000000
0000000000000000000000000000000000000000000000000000000000000000000000
1111111111111111111111111111111111111111111111111000000000000000000000
0000000000000000000000000000000000000000000000000000000000011111111111
1111111111111111111111111111111111110000000000000000000000000000000000
0000000000000000000000000000000000000000000000011111111111111111111111
1111111111111111111111110000000000000000000000000000000000000000000000
0000000000000000000000000000000000001111111111111111111111111111111111
1111111111100000000000000000000000000000000000000000000000000000000000
0000000000000000000000000111111111111111111111111111111111111111111100
0000000000000000000000000000000000000000000000000000000000000000000000
0000000000000011111111111111111111111111111111111111111000000000000000
0000000000000000000000000000000000000000000000000000000000000000000000
0001111111111111111111111111111111111111110000000000000000000000000000
0000000000000000000000000000000000000000000000000000000000000111111111
1111111111111111111111111111110000000000000000000000000000000000000000
0000000000000000000000000000000000000000000000000111111111111111111111
1111111111111111110000000000000000000000000000000000000000000000000000
0000000000000000000000000000000000000111111111111111111111111111111111
1111110000000000000000000000000000000000000000000000000000000000000000
0000000000000000000000000111111111111111111111111111111111111111000000
0000000000000000000000000000000000000000000000000000000000000000000000
0000000000000111111111111111111111111111111111111111000000000000000000
0000000000000000000000000000000000000000000000000000000000000000000000
0111111110001111111111111111100011111111000000000000000000000000000000
0000000000000000000000000000000000000000000000000000000000011111111000
0000111111110000000011111111000000000000000000000000000000000000000000
0000000000000000000000000000000000000000000000011111111000000011111111
0000000011111111000000000000000000000000000000000000000000000000000000
0000000000000000000000000000000000011111111000000011111111000000001111
1111000000000000000000000000000000000000000000000000000000000000000000
0000000000000000000000011111111000000011111111000000001111111100000000
0000000000000000000000000000000000000000000000000000000000000000000000
0000000000011111111000000011111111000000001111111100000000000000000000
0000000000000000000000000000000000000000000000000000000000000000000001
1111111000000011111111000000001111111100000000000000000000000000000000
0000000000000000000000000000000000000000000000000000000001111111100000
0011111111000000001111111100000000000000000000000000000000000000000000
0000000000000000000000000000000000000000000001111111100000001111111100
0000001111111100000000000000000000000000000000000000000000000000000000
0000000000000000000000000000000001111111100000001111111100000000111111
1100000000000000000000000000000000000000000000000000000000000000000000
0000000000000000000001111111111111111111111111111111111111110000000000
0000000000000000000000000000000000000000000000000000000000000000000000
0000000001111111111111111111111111111111111111110000000000000000000000
0000000000000000000000000000000000000000000000000000000000000000000111
1111111111111111111111111111111111110000000000000000000000000000000000
0000000000000000000000000000000000000000000000000000000111111111111111
1111111111111111111111110000000000000000000000000000000000000000000000
0000000000000000000000000000000000000000000111111111111111111111111111
1111111111110000000000000000000000000000000000000000000000000000000000
0000000000000000000000000000000111111111111111111111111111111111111111
0000000000000000000000000000000000000000000000000000000000000000000000
0000000000000000000111111111111111111111111111111111111111000000000000
0000000000000000000000000000000000000000000000000000000000000000000000
0000000111111111111111111111111111111111111111000000000000000000000000
0000000000000000000000000000000000000000000000000000000000000000011111
1111111111111111111111111111111111000000000000000000000000000000000000
0000000000000000000000000000000000000000000000000000011111111111111111
1111111111111111111111000000000000000000000000000000000000000000000000
0000000000000000000000000000000000000000011111111111111111111111111111
1111111111000000000000000000000000000000000000000000000000000000000000
0000000000000000000000000000011111111111111111111111111111111111111100
0000000000000000000000000000000000000000000000000000000000000000000000
0000000000000000011111111111111111111111111111111111111100000000000000
0000000000000000000000000000000000000000000000000000000000000000000000
0000011111111111111111111111111111111111111100000000000000000000000000
0000000000000000000000000000000000000000000000000000000000000001111111
1111111111111111111111111111111100000000000000000000000000000000000000
0000000000000000000000000000000000000000000000000001111111111111111111
1111111111111111111100000000000000000000000000000000000000000000000000
0000000000000000000000000000000000000001111111111111111111111111111111
1111111100000000000000000000000000000000000000000000000000000000000000
0000000000000000000000000001111111111111111111111111111111111111110000
0000000000000000000000000000000000000000000000000000000000000000000000
0000000000000001111111111111111111111111111111111111110000000000000000
0000000000000000000000000000000000000000000000000000000000000000000000
0000000000000000000000000000000000000000000000000000000000000000000000
0000000000000000000000000000000000000000000000000000000000000000000000
0000000000000000000000000000000000000000000000000000000000000000000000
0000000000000000000000000000000000000000000000000000000000000000000000
0000000000000000000000000000000000000000000000000000000000000000000000
0000000000000000000000000000000000000000000000000000000000000000000000
0000000000000000000000000000000000000000000000000000000000000000000000
0000000000000000000000000000000000000000000000000000000000000000000000
00000000000000000000000000000000000000