P1
# CREATOR: GIMP PNM Filter Version 1.1
128 96
0000000000000000000000000000000000000000000000000000000000000000000000
0000000000000000000000000000000000000000000000000000000000000000000000
0000000000000000000000000000000000000000000000000000000000000000000000
0000000000000000000000000000000000000000000000000000000000000000000000
0000000000000000000000000000000000000000000000000000000000000000000000
0000000000000000000000000000000000000000000000000000000000000000000000
0000000000000000111111111100000000000000000000000000000000000000000000
0000000000000000000000000000000000000000000000000000000000000000000000
0000010111111111111100000000000000000000000000000000000000000000000000
0000000000000000000000000000000000000000000000000000000000111111111111
1111111111110000000000000000000000000000000000000000000000000000000000
0000000000000000000000000000000000000000111111111111111111111111111111
1110000000000000000000000000000000000000000000000000000000000000000000
0000000000000000000000000111111111111111111111111111111111111111000000
0000000000000000000000000000000000000000000000000000000000000000000000
0000000000011111111111111111111111111111111111111111110000000000000000
0000000000000000000000000000000000000000000000000000000000000000000111
1111111111111111111111111111111111111111111100000000000000000000000000
0000000000000000000000000000000000000000000000000000011100111111111111
1111111111111111111111111111111111000000000000000000000000000000000000
0000000000000000000000000000000000000000000001111111111111111111111111
1111111111111111111111110000000000000000000000000000000000000000000000
0000000000000000000000000000000111111111111111111111111111111111111111
1111111111111000000000000000000000000000000000000000000000000000000000
0000000000000000001111111111111111111111111111111111111111111111111111
1110000000000000000000000000000000000000000000000000000000000000000000
0000111111111111111101111111111111111111111111111111111111111100000000
0000000000000000000000000000000000000000000000000000000000000111111111
1111100011111111111111111111111111111111111111111110000000000000000000
0000000000000000000000000000000000000000000000000111111111111000111111
1111111111111111111111111111111111111111000000000000000000000000000000
0000000000000000000000000000000000001111111111110000111010000010111111
1111111111111111111111111111100000000000000000000000000000000000000000
0000000000000000000000011111111111000000000000000000000001111111111111
1111111111111111110000000000000000000000000000000000000000000000000000
0000000000011111111110000000000000000000000111111111111111111111111111
1111111000000000000000000000000000000000000000000000000000000000000011
1111111100000000000000000000001111111111111111111111111111111111110000
0000000000000000000000000000000000000000000000000000000011111111100000
0000000000000000001101010111111111111111111111111111111000000000000000
0000000000000000000000000000000000000000000111111111000000000000000000
0000000000000000000111111111111111111111111000000000000000000000000000
0000000000000000000000000000000111111111000000000000000000000000000000
0000000000111111111111111111111100000000000000000000000000000000000000
0000000000000000000111111110000000000000000000000000000000000000000001
1111111111111111111110000000000000000000000000000000000000000000000000
0000001110111100000000000000000000000000000000000000111000111111111111
1111111110000000000000000000000000000000000000000000000000000000111011
1100000000000000000000000000000000000000001111111111111111111111111100
0000000000000000000000000000000000000000000000000000110011100000000000
0000000000000000000000000000000011111111111111111111111100000000000000
0000000000000000000000000000000000000000110011100000000000000000000000
0000000000000000000011111111111111111111111110000000000000000000000000
0000000000000000000000000000100011000000000000000000000000000000000000
0000000000111111111111111111111110000000000000000000000000000000000000
0000000000000001100011000000000000000000000000000000000000000000000001
1111111111111111111111000000000000000000000000000000000000000000000000
0001100011000000000000000000000000000000000000000000000000111111111111
1111111111000000000000000000000000000000000000000000000000000100000000
0000000000000000000000000000000000000000000000111111111111111111111100
0000000000000000000000000000000000000000000000000100000000000000000000
0000000000000000000000000000000000011111111111111111111110000000000000
0000000000000000000000000000000000000100000000000000000000000000000000
0000000000000000000000001111111111111111111110000000000000000000000000
0000000000000000000000000100000000000000000000000000000000000000000000
0000000000001111111111111111111110000000000000000000000000000000000000
0000000000000100000000000000000000000000000000000000000000000000000000
0111111111111111111111000000000000000000000000000000000000000000000000
0000000000000000000000000000000000000000000000000000000000011111111111
1111111111000000000000000000000000000000000000000000000000000000000000
0000000000000000000000000000000001100000000000011111111111111111111100
0000000000000000000000000000000000000000000000000000000000000000000000
0000000000000000000011110000000000001111111111111111111100000000000000
0000000000000000000000000000000000000000000000000000000000000000000000
0000000111100000000000001111111111111111111100000000000000000000000000
0000000000000000000000000000000000000000000000000000000000000000011111
0000000000001111111111111111111110000000000000000000000000000000000000
0000000000000000000000000000000000000000000000000000011111000000000000
1111111111111111111100000000000000000000000000000000000000000000000000
0000000000000000000000000000000000000000111111100000000000111111111111
1111111110000000000000000000000000000000000000000000000000000000000000
0000000000000000000000000000111111100000000000111111111111111111111000
0000000000000000000000000000000000000000000000000000000000000000000000
0000000000000000111111110000000000111111111111111111111000000000000000
0000000000000000000000000000000000000000000000000000000000000000000000
0000111111111000000000111111111111111111111000000000000000000000000000
0000000000000000000000000000000000000000000000000000000000000001111111
1000000001111111111111111111111000000000000000000000000000000000000000
0000000000000000000000000000000000000000000000000001111111110000000111
1111111111111111111000000000000000000000000000000000000000000000000000
0000000000000001110000000000000000000001111111110000000111111111111111
1111111000000000000000000000000000000000000000000000000000000000000000
0001111000000000000000000000111111110000001111111111111111111111100000
0000000000000000000000000000000000000000000000000000000000000111110000
0000000000000000111111111000001111111111111111111111100000000000000000
0000000000000000000000000000000000000000000000001111110000000000000000
0000111111111000001111111111111111111111100000000000000000000000000000
0000000000000000000000000000000000001111111000000000000000000011111111
1000011111111111111111111111100000000000000000000000000000000000000000
0000000000000000000000000111111000000000000000000001111111100011111111
1111111111111111000000000000000000000000000000000000000000000000000000
0000000000001111111100000000000000000001111111100011111111111111111111
1111100000000000000000000000000000000000000000000000000000100000000000
1111111110000000000000000011111111110111111111111111111111111100000000
0000000000000000000000000000000000000000000000110000000000111111111100
0111000000000011111111100111111111111111111111111100000000000000000000
0000000000000000000000000000000000110000000000111111111111111100000000
0011111111111111111111111111111111111100000000000000000000000000000000
0000000000000000000000111100000001111111111111111100000000011111111111
1111111111111111111111111100000000000000000000000000000000000000000000
0000000000011111000011111111111111111000000000011111111111111111111111
1111111111111000000000000000000000000000000000000000000000000000000001
1111111111111111111111111000000000111111111111111111111111111111111111
1000000000000000000000000000000000000000000000000000000001111111111111
1111111111111100000001111111111111111111111111111111111111100000000000
0000000000000000000000000000000000000000000000111111111111111111111111
1110000011111111111111111111111111111111111111000000000000000000000000
0000000000000000000000000000000000011111111111111111111111111101111111
1111111111111111111111111111111111000000000000000000000000000000000000
0000000000000000000000011111111111111111111111111111111111111111111111
1111111111111111111111000000000000000000000000000000000000000000000000
0000000000001111111111111111111111111111111111111111111111111111111111
1111111110000000000000000000000000000000000000000000000000000000000000
0111111111111111111111111111111111111111111111111111111111111111111000
0000000000000000000000000000000000000000000000000000000000111111111111
1111111111111111111111111111111111111111111111111111110000000000000000
0000000000000000000000000000000000000000000000111111111111111111111111
1111111111111111111111111111111111111111110000000000000000000000000000
0000000000000000000000000000000000111111111111111111111111111111111111
1111111111111111111111111111100000000000000000000000000000000000000000
0000000000000000000000111111111111111111111111111111111111111111111111
1111111111111111100000000000000000000000000000000000000000000000000000
0000000000111111111111111111111111111111111111111111111111111111111111
1111000000000000000000000000000000000000000000000000000000000000000011
1111111111111111111111111111111111111111111111111111111111111000000000
0000000000000000000000000000000000000000000000000000000011111111111111
1111111111111111111111111111111111111111111111110000000000000000000000
0000000000000000000000000000000000000000000001111111111111111111111111
1111111111111111111111111111111111110000000000000000000000000000000000
0000000000000000000000000000000011111111111111111111111111111111111111
1111111111111111111111100000000000000000000000000000000000000000000000
0000000000000000000001111111111111111111111111111111111111111111111111
1111111111000000000000000000000000000000000000000000000000000000000000
0000000011111111111111111111111111111111111111111111111111111111111000
0000000000000000000000000000000000000000000000000000000000000000011111
1111111111111111111111111111111111111111111111111111110000000000000000
0000000000000000000000000000000000000000000000000000111111111111111111
1111111111111111111111111111111111111111100000000000000000000000000000
0000000000000000000000000000000000000011111111111111111111111111111111
1111111111111111111111111110000000000000000000000000000000000000000000
0000000000000000000000011111111111111111111111111111111111111111111111
1111111111111100000000000000000000000000000000000000000000000000000000
0000000000011111111111111111111111111111111111111111111111111111111111
1000000000000000000000000000000000000000000000000000000000000000000000
0111111111111111111111111111111111111111111111111111111110000000000000
0000000000000000000000000000000000000000000000000000000000000111111111
1111111111111111111111111111111111111111111100000000000000000000000000
0000000000000000000000000000000000000000000000000001111111111111111111
1111111111111111111111111111110000000000000000000000000000000000000000
0000000000000000000000000000000000000000000000000111111111111111111111
1111111111111111000000000000000000000000000000000000000000000000000000
0000000000000000000000000000000000000011111111111111111111111111111111
1000000000000000000000000000000000000000000000000000000000000000000000
0000000000000000000000000000111111111111111111111111111111000000000000
0000000000000000000000000000000000000000000000000000000000000000000000
0000000000000000000111111111111111111111110000000000000000000000000000
0000000000000000000000000000000000000000000000000000000000000000000000
0000000000111001111111111000000000000000000000000000000000000000000000
0000000000000000000000000000000000000000000000000000000000000000000000
0100000000000100000000000000000000000000000000000000000000000000000000
0000000000000000000000000000000000000000000000000000000000000000000000
0000000000000000000000000000000000000000000000000000000000000000000000
0000000000000000000000000000000000000000000000000000000000000000000000
0000000000000000000000000000000000000000000000000000000000000000000000
0000000000000000000000000000000000000000000000000000000000000000000000
00000000000000000000000000000000000000