P1
# CREATOR: GIMP PNM Filter Version 1.1
128 96
0000000000000000000000000000000000000000000000000000000000000000000000
0000000000000000000000000000000000000000000000000000000000000000000000
0000000000000000000000000000000000000000000000000000000000000000000000
0000000000000000000000000000000000000000000000000000000000000000000000
0000000000000000000000000000000000000000000000000000000000000000000000
0000000000000000000000000000000000000000000000000000000000000000000000
0000000000000000000000000000000000000000000000000000000001111111100000
0000000000000000000000000000000000000000000000000000000000000000000000
0000000000000000000000000000000000000000000111000001110000000000000000
0000000000000000000000000000000000000000000000000000000000000000000000
0000000000000000000000000000001110000000111000000000000000000000000000
0000000000000000000000000000000000000000000000000000000000000000000000
0000000000000000011100000000001100000000000000000000000000000000000000
0000000000000000000000000000000000000000000000000000000000000000000000
0000011000000000000110000000000000000000000000000000000000000000000000
0000000000000000000000000000000000000000000000000000000000000011000000
0000000110000000000000000000000000000000000000000000000000000000000000
0000000000000000000000000000000000000000000000000010000000000000001000
0000000000000000000000000000000000000000000000000000000000000000000000
0000000000000000000000000000000000000010000000000000001000000000000000
0000000000000000000000000000000000000000000000000000000000000000000000
0000000000000000000000000010000000000000001100000000000000000000000000
0000000000000000000000000000000000000000000000000000000000000000000000
0000000000000010000000000000001100000000000000000000000000000000000000
0000000000000000000000000000000000000000000000000000000000000000000000
0010000000000000001100000000000000000000000000000000000000000000000000
0000000000000000000000000000000000000000000000000000000000001100000000
0100011100000000000000000000000000000000000000000000000000000000000000
0000000000000000000000000000000000000000000000000111111111111111110000
0000000000000000000000000000000000000000000000000000000000000000000000
0000000000000000000000000000000000000000000000000000000000000000000000
0000000000000000000000000000000000000000000000000000000000000000000000
0000000000000000000000000000000000000000000000000000000000000000000000
0000000000000000000000000000000000000000000000000000000000000000000000
0000000000000000000000111111000000000000000000000000000000000000000000
0000000000000000000000000000000000000000000000000000000000000000000000
0100000000111111100000000000000000000000000000000000000000000000000000
0000000000000000000000000000000000000000000000000000000000110000000110
0001100000000000000000000000000000000000000000000000000000000000000000
0000000000000000000000000000000000000000000000110000000110000111000000
0000000000000000000000000000000000000000000000000000000000000000000000
0000000000000000000000000000000000100000001100000011000000000000000000
0000000000000000000000000000000000000000000000000000000000000000000000
0000000000000000000000100000001100000011000000000000000000000000000000
0000000000000000000000000000000000000000000000000000000000000000000000
0000000000100000011000000011000000000000000000000000000000000000000000
0000000000000000000000000000000000000000000000000000000000000000000011
0000111000000110000000000000000000000000000000000000000000000000000011
1111000000000000000111111111100000000000000000000000000011000011000000
0110000000000000000000000000000000000000000000000000000111111111000000
0001111111111111111110000000000000000000000001111110000000111000000000
0000000000000000000000000000000000000000000111111111110000011111111111
1111111111100000000000000000000000111100000000010000000000000000000000
0000000000000000000000000000000111111111111101111111111111111111111111
1000000000000000000000000000001111100000000000000000000000000000000000
0000000000000000000011111111111110010111111111111111111111110000000000
0000000000000000011111111000000000000000000000000000000000000000000000
0000000011111111111111100001111111111111111111111100000000000000000011
1100110000011000000000000000000000000000000000000000000000000000001111
1111111111110001111111111111111111111110000000000000000111111110000001
1100000000000000000000000000000000000000000000000000001111111111111111
1001111111111111111111111111000000000000001110001110000000110000000000
0000000000000000000000000000000000000000000111111111111111100111111111
1111111111111111100000000000011000000110000000110000000000000000000000
0000000000000000000000000000000011111111111111101111111111111111111111
1111110000000000011000000110000000110000000000000000000000000000000000
0000000000000000000011111111111111101111111111111111111111111111100000
0000011000000110000000110000000000000000000000000000000000000000000000
0000000001111111111111011111111111111111111111111111100000000001100000
0110000000110000000000000000000000000000000000000000000000000000000111
1111111111011111111111111111111111111111110000000001100000011000000011
0000000000000000000000000000000000000000000000000000000011111111110011
1111111111111111111111111111111000000000110000011000000011000000000000
0000000000000000000000000000000000000000000111111111101111111111111111
1111111111111111111000000000111110111101010111000000000000000000000000
0000000000000000000000000000000101111111101111111111111111111111111111
1111111000000000011111111111111111000000000000000000000000000000000000
0000000000000000001101111110011111111111111111111111111111111111110000
0000000000000000000000000000000000000000000000000000000000000000000000
0000001100011001111111111111111111111111111111111111110000000000000000
0000000000000000000000000000000000000000000000000000000000000001111000
0111111111111111111111111111111111111111111000000000000000000000000000
0000000000000000000000000000000000000000000000000001111111111111111111
1111111111111111111111111111111000000000000000111100000000000000000000
0000000000000000000000000000000000000001111111111111111111111111111111
1111111111111111111000000000000001111100000000000000000000000000000000
0000000000000000000000000011111111111111111111111111111111111111111111
1111111000000000000011101100010000000000000000000000000000000000000000
0000000000000011111111111111111111111111111111111111111111111111110000
0000000110001100011000000000000000000000000000000000000000000000000000
0011111111111111111111111111111111111111111111111111110000000000010000
1100011000000000000000000000000000000000000000000000000000001111111111
1111111111111111111111111111111111111111110000000000010000110000110000
0000000000000000000000000000000000000000000000001111111111111111111111
1111111111111111111111111111110000000000110000110000110000000000000000
0000000000000000000000000000000000001111111111111111111111111111111111
1111111111111111110000000000110000110000110000000000000000000000000000
0000000000000000000000001111111111111111111111111111111111111111111111
1111110000000000010000110000110000000000000000000000000000000000000000
0000000000001111111111111111111111111111111111111111111111111111000000
0000011000110001100000000000000000000000000000000000000000000000000000
1111111111111111111111111111111111111111111111111111000000000001110011
0011100000000000000000000000000000000000000000000000000000111111111111
1111111111111111111111111111111111111110000000000000111111111100000000
0000000000000000000000000000000000000000000000011111111111111111111111
1111111111111111111111111110000000000000001111110000000000000000000000
0000000000000000000000000000000000011111111111111111111111111111111111
1111111111111110000000000000000000000000000000000000000000000000000000
0000000000000000000000011111111111111111111111111111111111111111111111
1100000000000000000000000000000000000000000000000000000000000000000000
0000000000001111111111111111111111111111111111111111111111110000000000
0000000111000000000000000000000000000000000000000000000000000000000000
1111111111111111111111111111111111111111111111110000000000000001111100
0000000000000000000000000000000000000000000000000000000000111111111111
1111111111111111111111111111111111100000000000000011101100010000000000
0000000000000000000000000000000000000000000000011111111111111111111111
1111111111111111111111100000000000000110001100011000000000000000000000
0000000000000000000000000000000000011111111111111111111111111111111111
1111111111100000000000000110001100011000000000000000000000000000000000
0000000000000000000000001111111111111111111111111111111111111111111100
0000000000000100001100001100000000000000000000000000000000000000000000
0000000000000111111111111111111111111111111111111111111000000000000000
1100001100001100000000000000000000000000000000000000000000000000000011
0111111111111111111111111111111111111111110000000000000000110000110000
1100000000000000000000000000000000000000000000000000000011001111111111
1111111111111111111111111111110000000000000000010000110000110000000000
0000000000000000000000000000000000000000000111100111111111111111111111
1111111111111111100000000000000000011000110001100000000000000000000000
0000000000000000000000000000000111110011111111111111111111111111111111
1111000000000000000000011100110011100000000000000000000000000000000000
0000000000000000001111111001111111111111111111111111111111111000000000
0000000000001111111111000000000000000000000000000000000000000000000000
0000001111111110011111111111111111111111111111100000000000000000000000
0011111100000000000000000000000000000000000000000000000000000000111111
1110001111111111111111111111111111000000000000000000000000000111100000
0000000000000000000000000000000000000000000000000001111111111110011111
1111111111111111111110000000000000000000000000100000000000000000000000
0000000000000000000000000000000000000001111111111111000011111111111111
1111110000000000000000000000000001110000000000000000000000000000000000
0000000000000000000000000001111111111100000000111111111111111100000000
0000000000000000000001100000000000000000000000000000000000000000000000
0000000000000001111111111000000000000111111111100000000000000000000000
0000000001000000000000000000000000000000000000000000000000000000000000
0001111111000000000000000000000000000000000000000000000000000000001100
0000000000000000000000000000000000000000000000000000000000000000000000
0000000000000000000000000000000000000000000000000000001100000000000000
0000000000000000000000000000000000000000000000000000000000000000000000
0000000000000000000000000000000000000000000110000000000000000000000000
0000000000000000000000000000000000000000000000000000000000000000000000
0000000000000000000000000000000111000000000000000000000000000000000000
0000000000000000000000000000000000000000000000000000000000000000000000
0000000000000000000011111111111100000000000000000000000000000000000000
0000000000000000000000000000000000000000000000000000000000000000000000
0010000000111111111000000000000000000000000000000000000000000000000000
0000000000000000000000000000000000000000000000000000000000011000000000
0000000000000000000000000000000000000000000000000000000000000000000000
0000000000000000000000000000000000000000000000011000000010000000000000
0000000000000000000000000000000000000000000000000000000000000000000000
0000000000000000000000000000000000011000000011000000000000000000000000
0000000000000000000000000000000000000000000000000000000000000000000000
0000000000000000000000011000000011000000000000000000000000000000000000
0000000000000000000000000000000000000000000000000000000000000000000000
0000000000011000000011000000000000000000000000000000000000000000000000
0000000000000000000000000000000000000000000000000000000000000000000000
1000000011000000000000000000000000000000000000000000000000000000000000
0000000000000000000000000000000000000000000000000000000000111000001100
0000000000000000000000000000000000000000000000000000000000000000000000
0000000000000000000000000000000000000000000000011111111111111110000000
0000000000000000000000000000000000000000000000000000000000000000000000
0000000000000000000000000000000000001111111111111111000000000000000000
0000000000000000000000000000000000000000000000000000000000000000000000
0000000000000000000000000000000000000000000000000000000000000000000000
0000000000000000000000000000000000000000000000000000000000000000000000
0000000000000000000000000000000000000000000000000000000000000000000000
0000000000000000000000000000000000000000000000000000000000000000000000
00000000000000000000000000000000000000