P1
# CREATOR: GIMP PNM Filter Version 1.1
128 96
0000000000000000000000000000000000000000000000000000000000000000000000
0000000000000000000000000000000000000000000000000000000000000000000000
0000000000000000000000000000000000000000000000000000000000000000000000
0000000000000000000000000000000000000000000000000000000000000000000000
0000000000000000000000000000000000000000000000000000000000000000000000
0000000000000000000000000000000000000000000000000000000000000000000000
0101111111100000000000000000000000000000000000000000000000000000000000
0000000000000000000000000000000000000000000000000000000111000000000001
1100000000000000000000000000000000000000000000000000000000000000000000
0000000000000000000000000000000000000000011000000000000000001100000000
0000000000000000000000000000000000000000000000000000000000000000000000
0000000000000000000000000001100000000000000000000011000000000000000000
0000000000000000000000000000000000000000000000000000000000000000000000
0000000000000001000000011101101100000000100000000000000000000000000000
0000000000000000000000000000000000000000000000000000000000000000000000
0110000111111111111111101000011000000000000000000000000000000000000000
0000000000000000000000000000000000000000000000000000000000100011111111
1111111111111010001000000000000000000000000000000000000000000000000000
0000000000000000000000000000000000000000000001000011111111111111111111
1110000100000000000000000000000000000000000000000000000000000000000000
0000000000000000000000000000000011001111110010000000110111111110001000
0000000000000000000000000000000000000000000000000000000000000000000000
0000000000000000000010011111100001011101000111111100001000000000000000
0000000000000000000000000000000000000000000000000000000000000000000000
0000000100011110001100000000110001111111000100000000000000000000000000
0000000000000000000000000000000000000000000000000000000000000000010011
1100110000000000001001111110000100011100000000000000000000000000000000
0000000000000000000000000000000000000000000000000000100111100100000000
0000000100111111000100010100000000000000000000000000000000000000000000
0000000000000000000000000000000000000000100111001000000000000000010011
1111100011110010000000000000000000000000000000000000000000000000000000
0000000000000000000000000000100111010000000000000000010011111110111000
0000000000000000000000000000000000000000000000000000000000000000000000
0000000000000000100110010000000000000000010111111111110000001000000000
0000000000000000000000000000000000000000000000000000000000000000000000
0000101110100000000000000000100111111111000000000000000000000000000000
0000000000000000000000000000000000000000000000000000000000000000110010
0000000000000000101111111110000000010000000000000000000000000000000000
0000000000000000000000000000000000000000000000000100110100000000000000
0001001111111000000000010000000000000000000000000000000000000000000000
0000000000000000000000000000000000000000110100000000000000010001111100
0000000000010001111100000000000000000000000000000000000000000000000000
0000000000000000000000000100110100000000000000100111111000000000000010
0010000110000000000000000000000000000000000000000000000000000000000000
0000000000000000110100000000000011001111100000000000000010010000000110
0011000000000000000000000000000000000000000000000000000000000000000000
0010110100000000000100011111000000000000000010010000000010001110000000
0000000000000000000000000000000000000000000000000000000000001011001000
0000001000111110000000000000000100011000000011110001000000000000000000
0000000000000000000000000000000000000000000000001001001000000001001111
1100000000000000001100010000000001100001101000000000000000000000000000
0000000000000000000000000000000000000101001000000010011111110000000000
0000001000110000000000100001101011000000000000000000000000000000000000
0000000000000000000000000100001000000100111111100000000000000001111110
0000000000100001000001000000000000000000000000000000000000000000000000
0000000000000010001000001000111111100001101001101100011000000000000000
0001100001000000000000000000000000000000000000000000000000000000000000
0010001000010001111111100010000111101100110000000000000000000100000100
0000000000001000000000000000000000000000000000000000000000000100100000
0011111111110100000011110111000000001000000000000100000100000000000001
0100000000000000000000000000000000000000000000000100000010001111111111
0010000011110100000000000000000000000100000110001110000001111000000000
0000000000000000000000000000000000000011000000011111111100001110001111
1000000000010000000000000100000111111001100001111100000000000000000000
0000000000000000000000000100000010011111111100001111100110000000000010
0000000000000010000111000000100011111100000000000000000000000000000000
0000000000000000000010011111111100000111111100000000000100000000000000
0010000110000000110111111100000000000000000000000000000000000000000000
0000000010011111000100000000000000000000000100001100000000001000011000
0011011111111100000000000000000000000000000000000000000000000000000001
1110000010001000000000000000001000011000000000001000001100000011111111
1010000000000000000000000000000000000000000000000000001000111000000111
1100000000000000001000110000000000001000001100000011111111110000000000
0000000000000000000000000000000000000000000100110000100001010000000000
0000010000111000000000001000001100000001111111110000000000000000000000
0000000000000000000000000000000010111101000010000000000000000001000011
1000000000001000001000000000111111111000000000000000000000000000000000
0000000000000000000010110000000010000001100000000001001001000000000001
1000000000000000111111111000000000000000000000000000000000000000000000
0000000001110000000010000010000000000000101000000000000001000000000000
0000011111110000000000000000000000000000000000000000000000000000000011
0000000100010000000000000000101110000000000011000000000000000000011111
0000000000000000000000000000000000000000000000000000000011000000110011
0000000001000000011111000000000110000000000000000111111110000000000000
0000000000000000000000000000000000000000000100011110000010000000000000
0000001010000000001000000000000000000111111100000000000000000000000000
0000000000000000000000000000000100111110000100001110000100000000000000
0011110000000000000000001111110000000000000000000000000000000000000000
0000000000000000001001111111000000010011110000000000000000001000000000
0000000010111110111110000000000000000000000000000000000000000000000000
0000010011111111000000000011111000000000000000010000000000000000001111
1000000000000000000000000000000000000000000000000000000000000001001111
1111000000010011110100000000000000100000000000000000111111011000000000
0000000000000000000000000000000000000000000000000000011111111110000001
0011100000000000000000000000000000000000111111111100000000000000000000
0000000000000000000000000000000000000010011111111110000000000100100000
0000000000000000000000000000011111101100000000000000000000000000000000
0000000000000000000000000010011111111110010000000111000000000000001000
0000000000000000001011000111000000000000000000000000000000000000000000
0000000000000010011111111110011110000110000000000000000000000000000000
0011100110000000000000000000000000000000000000000000000000000000000000
0010011111111100011110000000000000000000000000000000000000011111111000
0000000000000000000000000000000000000000000000000000011000001001111111
1110001111000000000000000000000000000000000000111001110000000000000000
0000000000000000000000000000000000000000010100001001111111111000100000
0000000000000000000000000000000000111000000000000000000000000000000000
0000000000000000000000000000010100000000111111111000110000000000000000
0000000000000000000000100000000000000000000000000000000000000000000000
0000000000000000010100000100111111111000011100001010000000100000000000
0000011101100000000000000000000000000000000000000000000000000000000000
0000100010000100011111111100000110000001111110000000000000000001011100
0000000000000000000000000000000000000000000000000000000000000010001000
0010011111111100000010000000011100000000000000000111000000000000000000
0000000000000000000000000000000000000000000000000100001000001000111111
1100000000000000000110000000000000001110000000000000000000000000000000
0000000000000000000000000000000000001101001000000100011111110000000000
0000000001100000000000001100000000000000010000000000000000000000000000
0000000000000000000000001010010000000010001111110000000000000000000010
0000000011111000000000000000100000000000000000000000000000000000000000
0000000000001010010000000001100111111000000000000000000001100011011100
0000000000000001000000000000000000000000000000000000000000000000000001
0010010000000000100011111000000000000000000000111111110000000000000000
0010000000000000000000000000000000000000000000000000000001001101000000
0000011001111100000000000000000000110000000000000000000000010000000000
0000000000000000000000000000000000000000000001011001000000000000010001
1100000000000000000000010000000000000000000001100000000000000000000000
0000000000000000000000000000000001011001000000000000001000111000000000
0000000000011000000000000000000011000000000000000000000000000000000000
0000000000000000000001001101000000000000000100111100000000000000000000
1000000000000000001100000000000000000000000000000000000000000000000000
0000000001001101000000000000000010001110000000000000000000100000000000
0000111000000000000000000000000000000000000000000000000000000000000100
1101000000000000000001101111100000000000000000110100000101111110000000
0000000000000000000000000000000000000000000000000000000100110010000000
0000000000100111111000000000000000111111111111110000000000000000000000
0000000000000000000000000000000000000000000101110010000000000000000001
0111111110000000000000011000100000000000000000000000000000000000000000
0000000000000000000000000000000100111010000000000000000000101111111111
0000000000011000000000000000000000000000000000000000000000000000000000
0000000000000000000000111001000000000000000000100111111101111110000000
1100000000000000000000000000000000000000000000000000000000000000000000
0000000100011000100000000000000000100111111110010001100000010000000000
0000000000000000000000000000000000000000000000000000000000000000001001
1100110000000000000000100111111000010000111100010000000000000000000000
0000000000000000000000000000000000000000000000000000001001111000100000
0000000001001111111100010000000110010000000000000000000000000000000000
0000000000000000000000000000000000000000001000111100011000000000001000
1111110000100000000011011000000000000000000000000000000000000000000000
0000000000000000000000000000000100011100000110000000110011111111100010
0000000001111000000000000000000000000000000000000000000000000000000000
0000000000000000000100011111100001111111000011111110000110000000000001
0000000000000000000000000000000000000000000000000000000000000000000000
0000000010011111110010000000111111111111000100000000000000000000000000
0000000000000000000000000000000000000000000000000000000000000000001100
0111111111101110111111111000001000000000000000000000000000000000000000
0000000000000000000000000000000000000000000000000000000110001111111111
1111111111111100011000000000000000000000000000000000000000000000000000
0000000000000000000000000000000000000000000010000111111111111111111111
0000010000000000000000000000000000000000000000000000000000000000000000
0000000000000000000000000000000001100000111111111111101000000110000000
0000000000000000000000000000000000000000000000000000000000000000000000
0000000000000000000000100000000011001001000000001000000000000000000000
0000000000000000000000000000000000000000000000000000000000000000000000
0000000000011000000000000000000000110000000000000000000000000000000000
0000000000000000000000000000000000000000000000000000000000000000000000
0110000000000000000011000000000000000000000000000000000000000000000000
0000000000000000000000000000000000000000000000000000000000000110000000
0000010110000000000000000000000000000000000000000000000000000000000000
0000000000000000000000000000000000000000000000000000111111111100000000
0000000000000000000000000000000000000000000000000000000000000000000000
0000000000000000000000000000000000000000000000000000000000000000000000
0000000000000000000000000000000000000000000000000000000000000000000000
0000000000000000000000000000000000000000000000000000000000000000000000
0000000000000000000000000000000000000000000000000000000000000000000000
0000000000000000000000000000000000000000000000000000000000000000000000
00000000000000000000000000000000000000