P1
# CREATOR: GIMP PNM Filter Version 1.1
128 96
0000000000000000000000000000000000000000000000000000000000000000000000
0000000000000000000000000000000000000000000000000000000000000000000000
0000000000000000000000000000000000000000000000000000000000000000000000
0000000000000000000000000000000000000000000000000000000000000000000000
0000000000000000000000000000000000000000000000000000000000000000000000
0000000000000000000000000000000000000000000000000000000000000000000000
0000000000000000000000000000000000000000000000000000000000000000000000
0000000000000000000000000000000000000000000000000000000000000000000000
0000000000000000000000000000000000000000000000000000000000000000000000
0000000000000000000000000000000000000000000000000000000000000000000000
0000000000000000000000000000000000000000000000000000000000000000000000
0000000000000000000000000000000000000000000000000000000000000000000000
0000000000000000000000000000000000000000000000000000000000000000000000
0000000000000000000000000000000000000000000000000000000000000000000000
0000000000000000000000000000000000000000000000011110000000000000001111
1111111000000001111111111111110001111000000000000000000000011110000000
0001111000011111111111111100000000011110000000000000001111111111100000
0001111111111111110001111000000000000000000000011110000000000111100001
1111111111111100000000011110000000000000001111111111100000000111111111
1111110001111000000000000000000000011110000000000111100001111111111111
1100000000011110000000000000000000000000011110000111100000000000000111
1000000000000000000000011110000000000111100001111000000011110000000001
1110000000000000000000000000011110000111100000000000000111100000000000
0000000000011111110000111111100001111000000011110000000001111000000000
0000000000000000011110000111100000000000000111100000000000000000000001
1111110000111111100001111000000011110000000001111000000000000000000000
0000011110000111100000000000000111100000000000000000000001111111000011
1111100001111000000011110000000001111111111111110000111111111111111000
0111100000000000000111100000001111000000000001111000111100011110000111
1111111111110000000001111111111111110000111111111111111000011110000000
0000000111100000001111000000000001111000111100011110000111111111111111
0000000001111111111111110000111111111111111000011110000000000000011110
0000001111000000000001111000111100011110000111111111111111000000000111
1000000011110000111100000001111000011110000000000000011110000000000000
0000000001111000111100011110000111100000000000000000000111100000001111
0000111100000001111000011110000000000000011111111111000000000000000111
1000111100011110000111100000000000000000000111100000001111000011110000
0001111000011110000000000000011111111111000000000000000111100011110001
1110000111100000000000000000000111100000001111000011110000000111100001
1110000000000000011111111111000000000000000111100011110001111000011110
0000000000000000000111100000001111000011110000000111100001111000000000
0000011110000000000000000000000111100011110001111000011110000000000000
0000000111100000001111000011111111111111100001111111111111110001111000
0000111100000000000111100011110001111000011111111111111100000000011110
0000001111000011111111111111100001111111111111110001111000000011110000
0000000111100011110001111000011111111111111100000000011110000000111100
0011111111111111100001111111111111110001111000000011110000000000011110
0011110001111000011111111111111100000000000000000000000000000000000000
0000000000000000000000000000000000000000000000000000000000000000000000
0000000000000000000000000000000000000000000000000000000000000000000000
0000000000000000000000000000000000000000000000000000000000000000000000
0000000000000000000000000000000000000000000000000000000000000000000000
0000000000000000000000000000000000000000000000000000000000000000000000
0000000000000000000000000000000000000000000000000000000000000000000000
0000000000000000000000000000000000000000000000000000000000000000000000
0000000000000000000000000000000000000000000000000000000000000000000000
0000000000000000000000000000000000000000000000000000000000000000000000
0000000000111111111111111111001110001100011111111111100011111111111111
1110000000000000000000000000000000000000000000000000000000000000000011
1111111111111111001110001100011111111111100011111111111111111000000000
0000000000000000000000000000000000000000000000000000000011111111111111
1111001110001100011111111111100011111111111111111000000000000000000000
0000000000000000000000000000000000000000000011100000000000011100000111
1111111000110000000011000000000000011000000000000000000000000000000000
0000000000000000000000000000000011100000000000011100000111111111100011
0000000011000000000000011000000000000000000000000000000000000000000000
0000000000000000000011100111111110011100111111110000011100111000001100
0111111100011000000000000000000000000000000000000000000000000000000000
0000000011100111111110011100111111110000011100111000001100011111110001
1000000000000000000000000000000000000000000000000000000000000000001110
0111111110011100111111110000011100111000001100011111110001100000000000
0000000000000000000000000000000000000000000000000000001110011111111001
1100111111110001100011000000001100011111110001100000000000000000000000
0000000000000000000000000000000000000000001110011111111001110011111111
0001100011000000001100011111110001100000000000000000000000000000000000
0000000000000000000000000000001110011111111001110011100000111110001100
0110001100011111110001100000000000000000000000000000000000000000000000
0000000000000000001110011111111001110011100000111110001100011000110001
1111110001100000000000000000000000000000000000000000000000000000000000
0000001110011111111001110011100000111110001100011000110001111111000110
0000000000000000000000000000000000000000000000000000000000000000111000
0000000001110000000011111000001100011000110000000000000110000000000000
0000000000000000000000000000000000000000000000000000111000000000000111
0000000011111000001100011000110000000000000110000000000000000000000000
0000000000000000000000000000000000000000111111111111111111001110001100
0110001100011000111111111111111110000000000000000000000000000000000000
0000000000000000000000000000111111111111111111001110001100011000110001
1000111111111111111110000000000000000000000000000000000000000000000000
0000000000000000111111111111111111001110001100011000110001100011111111
1111111110000000000000000000000000000000000000000000000000000000000000
0000000000000000000000000000001100011000001110000000000000000000000000
0000000000000000000000000000000000000000000000000000000000000000000000
0000000000000000001100011000001110000000000000000000000000000000000000
0000000000000000000000000000000000000000000000000011111111110000011100
1110001111111000111111111100000111111100011000000000000000000000000000
0000000000000000000000000000000000000011111111110000011100111000111111
1000111111111100000111111100011000000000000000000000000000000000000000
0000000000000000000000000011111111110000011100111000111111100011111111
1100000111111100011000000000000000000000000000000000000000000000000000
0000000000000011111000001110000011000000110001111100000110000011100000
0011100000000000000000000000000000000000000000000000000000000000000000
0011111000001110000011000000110001111100000110000011100000001110000000
0000000000000000000000000000000000000000000000000000000000001111100000
1110000011000000110001111100000110000011100000001110000000000000000000
0000000000000000000000000000000000000000000000001110011100111111111100
0111111111111100000110001111100000000000000000000000000000000000000000
0000000000000000000000000000000000001110011100111111111100011111111111
1100000110001111100000000000000000000000000000000000000000000000000000
0000000000000000000000000001111111111000001111111111000001111111100111
1100000111110000000000000000000000000000000000000000000000000000000000
0000000000000001111111111000001111111111000001111111100111110000011111
0000000000000000000000000000000000000000000000000000000000000000000000
0001111111111000001111111111000001111111100111110000011111000000000000
0000000000000000000000000000000000000000000000000000000000111001111111
1001111100011111000110001100000111110001100011111110000000000000000000
0000000000000000000000000000000000000000000000111001111111100111110001
1111000110001100000111110001100011111110000000000000000000000000000000
0000000000000000000000000000000000000110001100011000000001110011111111
0011100111111111100000000110000000000000000000000000000000000000000000
0000000000000000000000000110001100011000000001110011111111001110011111
1111100000000110000000000000000000000000000000000000000000000000000000
0000000000000110001100011000000001110011111111001110011111111110000000
0110000000000000000000000000000000000000000000000000000000000000000000
0111110011100111110001110011100000000001111111000110001111100000000000
0000000000000000000000000000000000000000000000000000000000011111001110
0111110001110011100000000001111111000110001111100000000000000000000000
0000000000000000000000000000000000000000000011100000000001100000000000
0011100000001111111100111110000000011000000000000000000000000000000000
0000000000000000000000000000000011100000000001100000000000001110000000
1111111100111110000000011000000000000000000000000000000000000000000000
0000000000000000000011100000000001100000000000001110000000111111110011
1110000000011000000000000000000000000000000000000000000000000000000000
0000000000000000110001111111000000000001100011111111111111111111111111
1000000000000000000000000000000000000000000000000000000000000000000000
0000110001111111000000000001100011111111111111111111111111100000000000
0000000000000000000000000000000000000000000000000000000000000000000000
0000111111000000000000000110000000011000110001100000000000000000000000
0000000000000000000000000000000000000000000000000000000000000011111100
0000000000000110000000011000110001100000000000000000000000000000000000
0000000000000000000000000000000000000000000000000011111100000000000000
0110000000011000110001100000000000000000000000000000000000000000000000
0000000000000000001111111111111111110000000011000001111100011000110001
1000111111100000000000000000000000000000000000000000000000000000000000
0000001111111111111111110000000011000001111100011000110001100011111110
0000000000000000000000000000000000000000000000000000000000000000111000
0000000001110000011100111001111111111000000001100000000000000000000000
0000000000000000000000000000000000000000000000000000111000000000000111
0000011100111001111111111000000001100000000000000000000000000000000000
0000000000000000000000000000000000000000111000000000000111000001110011
1001111111111000000001100000000000000000000000000000000000000000000000
0000000000000000000000000000111001111111100111000000000000000111110001
1111111111111100111000000000000000000000000000000000000000000000000000
0000000000000000111001111111100111000000000000000111110001111111111111
1100111000000000000000000000000000000000000000000000000000000000000000
0000111001111111100111001110000000000000000001100011000111111111111000
0000000000000000000000000000000000000000000000000000000000000011100111
1111100111001110000000000000000001100011000111111111111000000000000000
0000000000000000000000000000000000000000000000000011100111111110011100
1110000000000000000001100011000111111111111000000000000000000000000000
0000000000000000000000000000000000000011100111111110011100111000110000
0000111110011111000110001111100000000000000000000000000000000000000000
0000000000000000000000000011100111111110011100111000110000000011111001
1111000110001111100000000000000000000000000000000000000000000000000000
0000000000000011100000000000011100111000111111111111000001111100011000
1100000000000000000000000000000000000000000000000000000000000000000000
0011100000000000011100111000111111111111000001111100011000110000000000
0000000000000000000000000000000000000000000000000000000000001110000000
0000011100111000111111111111000001111100011000110000000000000000000000
0000000000000000000000000000000000000000000000001111111111111111110011
1111001110000000000000000011111111111111100000000000000000000000000000
0000000000000000000000000000000000001111111111111111110011111100111000
0000000000000011111111111111100000000000000000000000000000000000000000
0000000000000000000000000000000000000000000000000000000000000000000000
0000000000000000000000000000000000000000000000000000000000000000000000
0000000000000000000000000000000000000000000000000000000000000000000000
00000000000000000000000000000000000000