P1
# CREATOR: GIMP PNM Filter Version 1.1
128 96
0000000000000000000000000000000000000000000000000000000000000000000000
0000000000000000000000000000000000000000000000000000000000000000000000
0000000000000000000000000000000000000000000000000000000000000000000000
0000000000000000000000000000000000000000000000000000000000000000000000
0000000000000000000000000000000000000000000000000000000000000000000000
0000000000000000000000000000000000000000000000000000000000000000000000
0000000000000000000000000000000000000000000000000000000000000000000000
0000000000000000000000000000000000000000000000000000000000000000000000
0000000000000000000000000000000000000000000000000000000000000000000000
0000000000001110000000111000000000000000000000000000000000000000000000
0000000000000000000000000000000000000000000000000000000000000000000000
1110000000111000000000000000000000000000000000000000000000000000000000
0000000000000000000000000000000000000000000000000000000000111000000011
1000000000000000000000000011111111111111111111111000111000011100011111
1111111111110001111111111111111111111100000000111000000011100000000000
0000000000000011111111111111111111111000111000011100011111111111111111
0001111111111111111111111100000000111000000011100000000000000000000000
0011111111111111111111111000111000011100011111111111111111000111111111
1111111111111100000000111000000011100000000000000000000000001110000000
0000000001111000000111111111111100001110000000000111000000000000000001
1100000000111000000011100000000000000000000000001110000000000000000111
1000000111111111111100001110000000000111000000000000000001110000000011
1111111111100000000000000000000000001110000000000000000111100000011111
1111111100001110000000000111000000000000000001110000000011111111111110
0000000000000000000000001110001111111111000111100011111111110000001111
0001110000000111000111111111100001110000000011111111111110000000000000
0000000000001110001111111111000111100011111111110000001111000111000000
0111000111111111100001110000000011100000001110000000000000000000000000
1110001111111111000111100011111111110000001111000111000000011100011111
1111100001110000000011100000001110000000000000000000000000111000111111
1111000111100011111111110000001111000111000000011100011111111110000111
0000000011100000001110000000000000000000000000111000111111111100011110
0011111111110001110000111000000000011100011111111110000111000000001110
0000001110000000000000000000000000111000111111111100011110001111111111
0001110000111000000000011100011111111110000111000000001110000000111000
0000000000000000000000111000111111111100011110001111111111000111000011
1000000000011100011111111110000111000000001110000000111000000000000000
0000000000111000111111111100011110001110000000111111000011100011110001
1100011111111110000111000000001110000000111000000000000000000000000011
1000111111111100011110001110000000111111000011100011110001110001111111
1110000111000000001110000000111000000000000000000000000011100011111111
1100011110001110000000111111000011100011110001110001111111111000011100
0000001110000000111000000000000000000000000011100000000000000001111000
0000000111111000000011100011110001110000000000000000011100000000111000
0000111000011110000000000111100011100000000000000001111000000000011111
1000000011100011110001110000000000000000011100000000000000000000000001
1110000000000111100011100000000000000001111000000000011111100000001110
0011110001110000000000000000011100000000000000000000000001111000000000
0111100011111111111111111111111000111000011100011100001110001111000111
1111111111111111111100000000000000000000000001111000000000011110001111
1111111111111111111000111000011100011100001110001111000111111111111111
1111111100000000000000000000000001111111000011111110001111111111111111
1111111000111000011100011100001110001111000111111111111111111111110000
0000111111111100000001111111000011111110001111111111111111111111100011
1000011100011100001110001111000111111111111111111111110000000011111111
1100000001111111000011111110000000000000000000000000000000000001110001
1100000001110000000000000000000000000000000000000011111111110000000111
1000111100011110000000000000000000000000000000000001110001110000000111
0000000000000000000000000000000000000000000000001110000111100011110001
1110000000000000000000000000000000000001110001110000000111000000000000
0000000000000000000000000000000000001110000111100011110001111000111111
1111111000000111100011100001111111110000111111111111100000011111111110
0001110000000000000000001110000111100011110001111000111111111111100000
0111100011100001111111110000111111111111100000011111111110000111000000
0000000000001110000111100011110001111000111111111111100000011110001110
0001111111110000111111111111100000011111111110000111000000001111111111
1110000111100011110001111000111111000000011100000001110000000111000111
1111000000111100000011100000000001111000000000001111111111111000011110
0011110001111000111111000000011100000001110000000111000111111100000011
1100000011100000000001111000000000001111111111111000011110001111000111
1000111111000000011100000001110000000111000111111100000011110000001110
0000000001111000000000001110000000111000011110001111000111100011111100
0000011100000001110000000111000111111100000011110000001110000000000111
1000000000001110000000111000011110001111000111100011100011110001111111
1111110001111111111111111100000011110001111110000000000000000000000000
1110000000111000011110001111000111100011100011110001111111111111000111
1111111111111100000011110001111110000000000000000000000000111000000011
1000000000000000000000000011100011110001111111111111000111111111111111
1100000011110001111110000000000000000000000000111111111111100000000000
0000000000000000011111111111110000000111111111111100000011111111110000
1111110000000111111000000000000000111111111111100000000000000000000000
0000011111111111110000000111111111111100000011111111110000111111000000
0111111000000000000000111111111111100000000000000000000000000001111111
1111110000000111111111111100000011111111110000111111000000011111100000
0000000000000000000000000000000000000000000000001110001111111111000111
1111000111111100011100001110000000111111000111100011111111110000000000
0000000000000000000000000000000000001110001111111111000111111100011111
1100011100001110000000111111000111100011111111110000000000000000000000
0000000000000000000000001110001111111111000111111100011111110001110000
1110000000111111000111100011111111110000000000000000000000000000000000
0000000000000001110000111000111000000000011110001111111111000111000011
1111111111100000000001110000000011111111111111000000000000000000000000
0001110000111000111000000000011110001111111111000111000011111111111110
0000000001110000000011111111111111000111111111111111000000000111000011
1000111000000000011110001111111111000111000011111111111110000000000111
0000000011111111111111000111111111111111000000000111000011100011100000
0000011110001111111111000111000011111111111110000000000111000000001110
0000000000000111111111111111000000000111111100011100011111110001111000
1110000000000000111111111100011110001111111000000000001110000000000000
0111100000001111000000000111111100011100011111110001111000111000000000
0000111111111100011110001111111000000000001110000000000000011110000000
1111000000000111111100011100011111110001111000111000000000000011111111
1100011110001111111000000000001110000000000000011110000000111100000011
1000000000000011100000000000000000111000000000011111111110001111111000
0000000111000000001110000000000000011110000000111100000011100000000000
0011100000000000000000111000000000011111111110001111111000000000011100
0000001110000000000000011111111111111100000011100000000000001110000000
0000000000111000000000011111111110001111111000000000011100000000111000
0000000000011111111111111100000000000000001110001111111111000000000000
0111000011111111111111111111111111111111111100000000111000000000000001
1111111111111100000000000000001110001111111111000000000000011100001111
1111111111111111111111111111111100000000111000000000000001111000000000
0000000000000000001110001111111111000000000000011100001111111111111111
1111111111111111111100000000111000000000000001111000000000000000000000
0000001110001111111111000000000000011100001111111111111111111111111111
1111111100000000111000000000000001111000000000000000000000000000000000
0000000000111111100000000000000000001111000000000111100011100001110000
0000111111111111110001111000000000000000000000000000000000000000000011
1111100000000000000000001111000000000111100011100001110000000011111111
1111110001111000000000000000000000000000000000000000000011111110000000
0000000000001111000000000111100011100001110000000011111111111111000111
1111111111110000001111111111111111111111100000000001110000001111111000
1111000111000111100011111111110000000000000000000000000111111111111111
0000001111111111111111111111100000000001110000001111111000111100011100
0111100011111111110000000000000000000000000111111111111111000000111111
1111111111111111100000000001110000001111111000111100011100011110001111
1111110000000000000000000000000000000000000000000000111000000000000000
0111100000011110001110001111111111111100000000011110000000000000000000
0000000000000000000000000000000000000000111000000000000000011110000001
1110001110001111111111111100000000011110000000000000000000001110000000
0000000000000000000000000000111000000000000000011110000001111000111000
1111111111111100000000011110000000000000000000001110000000000000000000
0000000000000000111000111111111100011110000000000000000000111111100011
1111111111111111110001111000000000001110000000000000000000000000000000
0000111000111111111100011110000000000000000000111111100011111111111111
1111110001111000000000001110000000000000000000000000000000000011100011
1111111100011110000000000000000000111111100011111111111111111111000111
1000000000001110000000000000000000000000000000000011100011111111110001
1110000000000000000000111111100011111111111111111111000111100000000000
1110000000000000000000000000000000000011100011111111110001111000111000
0000000000000000000011110001110001111111111111111100000000111000000000
0000000000000000000000000011100011111111110001111000111000000000000000
0000000011110001110001111111111111111100000000111000000011100000000000
0000000000000011100011111111110001111000111000000000000000000000001111
0001110001111111111111111100000000111000000011100000000000000000000000
0011100011111111110001111000111000011100000000001111110000111111000111
1000111111100000000000111000000011100000000000000000000000001110001111
1111110001111000111000011100000000001111110000111111000111100011111110
0000000000111111111100000000000000000000000000001110001111111111000111
1000111000011100000000001111110000111111000111100011111110000000000011
1111111100000000000000000000000000001110000000000000000111100011100001
1111111111111110000000111111000111100011100000000000000011111111110000
0000000000000000000000001110000000000000000111100011100001111111111111
1110000000111111000111100011100000000000000011100000000000000000000000
0000000000001110000000000000000111100011100001111111111111111000000011
1111000111100011100000000000000011100000001110000000000000000000000000
1110000000000000000111100011100001111111111111111000000011111100011110
0011100000000000000011100000001110000000000000000000000000111111111111
1111111111100011111110001110000000000000000000000011111111111111111111
0000000011100000001110000000000000000000000000111111111111111111111110
0011111110001110000000000000000000000011111111111111111111000000000000
0000000000000000000000000000000000111111111111111111111110001111111000
1110000000000000000000000011111111111111111111000000000000000000000000
0000000000000000000000000000000000000000000000000000000000000000000000
0000000000000000000000000000000000000000000000000000000000000000000000
0000000000000000000000000000000000000000000000000000000000000000000000
0000000000000000000000000000000000000000000000000000000000000000000000
0000000000000000000000000000000000000000000000000000000000000000000000
0000000000000000000000000000000000000000000000000000000000000000000000
0000000000000000000000000000000000000000000000000000000000000000000000
0000000000000000000000000000000000000000000000000000000000000000000000
0000000000000000000000000000000000000000000000000000000000000000000000
0000000000000000000000000000000000000000000000000000000000000000000000
0000000000000000000000000000000000000000000000000000000000000000000000
0000000000000000000000000000000000000000000000000000000000000000000000
00000000000000000000000000000000000000