P1
# CREATOR: GIMP PNM Filter Version 1.1
128 96
0000000000000000000000000000000000000000000000000000000000000000000000
0000000000000000000000000000000000000000000000000000000000000000000000
0000000000000000000000000000000000000000000000000000000000000000000000
0000000000000000000000000000000000000000000000000000000000000000000000
0000000000000000000000000000000000000000000000000000000000000000000000
0000000000000000000000000000000000000000000000000000000000000000000000
0000000000000000000000000000000000000000000000000000000000000000000000
0000000000000000000000000000000000000000000000000000000000000000000000
0000000000000000000000000000000000000000000000000000000000000000000000
0000000000000000000000000000000000000000000000000000000000000000000000
0000000000000000000000000000000000000000000000000000000000000000000000
0000000000000000000000000000000000000000000000000000000000000000000000
0000000000000000000000000000000000000000000000000000000000000000000000
0000000000000000000000000000000000000000000000000000000000000000000000
0000000000000000000000000000000000000000000000000000000000000000000000
0000000000000000000000000000000000000000000000000000000000000000000000
0000000000000000000000000000000000000000000000000000000000000000000000
0000000000000000000000000000000000000000000000000000000000000000000000
0000000000000000000000000000001100000000000000000000000000000000000000
0000000000000000011111111000000000000000000000000000000000000000000000
0000000000000000001100000000000000000000000000000000000000000000000000
0000011111111000000000000000000000000000000000000000000000000000000000
0000001100000110000001100000011000000001100000000111111110000001100000
0001100000011001111110000111111110011000000000000000000000000000110000
0110000001100000011000000001100000000111111110000001100000000110000001
1001111110000111111110011000000000000000000000000000110001011110011110
0000011000000001100000000110000110000001111111100111100111100000000110
0110000000011000000000000000000000000000110001011110011110000001100000
0001100000000110000110000001111111100111100111100000000110011000000001
1000000000000000000000000000110001011001100110000001111111100111111110
0111111110000000000001100110011001100111111110011000000001111111100000
0000000000000000110000011001100110000001111111100111111110011111111000
0000000001100110011001100111111110011000000001111111100000000000000000
0000110000011001100110000001100000000110000110011000000000000000000110
0110011001100110000110011000000001100000000000000000000000000011000001
1001100110000001100000000110000110011000000000000000000110011001100110
0110000110011000000001100000000000000000000000000011000001100110011000
0001111111100110000110011111111000000111111110011001100110011111111001
1000000001111111100000000000000000000011000001100110011000000111111110
0110000110011111111000000111111110011001100110011111111001100000000111
1111100000000000000000000000000000000000000000000000000000000000000000
0000000000000000000000000000000000000000000000000000000000000000000000
0000000000000000000000000000000000000000000000000000000000000000000000
0000000000000000000000000000000000000000000000000000000000000000000000
0000000000000000000000000000000000000000000000000000000000000000000000
0000000000000000000000000000000000000000000000000000000000000000000000
0000000000000000000000000000000000000000000000000000000000000000000000
0000000000000000000000000000000000000000000111111000000000000000000000
0000000000000000000000000000000000000000000000000000011110000000000000
0000000000000000000000000000000111111000000000000000000000000000000000
0000000000000000000000000000000000000000011110000000000000000000000000
0000000000000000000110000110011000011001111111100110011000011001111111
1001111111100111111110000001100001100111111000011111111000000001100000
0000000110000110011000011001111111100110011000011001111111100111111110
0111111110000001100001100111111000011111111000000001100000000000011111
1000011000011001100000000000011110011001100001100110000000011000000000
0001100000000000000110011000000000000001100000000000011111100001100001
1001100000000000011110011001100001100110000000011000000000000110000000
0000000110011000000000000001100000000000011000011001100001100111111110
0110011001111001111111100111111110011111111000000110000000011111111001
1000000001111111100000000000011000011001100001100111111110011001100111
1001111111100111111110011111111000000110000000011111111001100000000111
1111100000000000011000011001100001100000000110011001100001100110000000
0000000110000000011000000110000110011000011001100000000110000110000000
0000011000011001100001100000000110011001100001100110000000000000011000
0000011000000110000110011000011001100000000110000110000000000001111110
0000011110000111111110011001100001100111111110011111111001111111100000
0001111000011111111001100000000111111110000000000001111110000001111000
0111111110011001100001100111111110011111111001111111100000000111100001
1111111001100000000111111110000000000000000000000000000000000000000000
0000000000000000000000000000000000000000000000000000000000000000000000
0000000000000000000000000000000000000000000000000000000000000000000000
0000000000000000000000000000000000000000000000000000000000000000000000
0000000000000000000000000000000000000000000000000000000000000000000000
0000000000000000000000000000000000000000000000000000000000000000000000
0000000000000000000000000000000000000000000000000000000000000000000000
0000000000000000000000000000000000000000000000000000000000000000000000
0000000000000000000000000000000000000000000000000000000000000000000000
0000000000000000000000000000000000000000000000000000000000000000000000
0000000000000000000000000000000000000000000000000000000000000000000000
0000000000000000000000000000000000000000000000000000000000000000000000
0000000000000000001111000011111111000000000000000000000000000000000000
0000000000000000000000000000000000000000000000000000000000000000000000
0000001111000011111111000000000000000000000000000000000000000000000000
0000000000000000000000000000000000000000000000000000000000000011000011
0011000000000000000000000000000000000000000000000000000000000000000000
0000000000000000000000000000000000000000000000000011000011001100000000
0000000000000000000000000000000000000000000000000000000000000000000000
0000000000000000000000000000000000000011000011001111111100000000000000
0000000000000000000000000000000000000000000000000000000000000000000000
0000000000000000000000000011000011001111111100000000000000000000000000
0000000000000000000000000000000000000000000000000000000000000000000000
0000000000000011000011001100000000000000000000000000000000000000000000
0000000000000000000000000000000000000000000000000000000000000000000000
0011000011001100000000000000000000000000000000000000000000000000000000
0000000000000000000000000000000000000000000000000000000000000011110000
1100000000000000000000000000000000000000000000000000000000000000000000
0000000000000000000000000000000000000000000000000011110000110000000000
0000000000000000000000000000000000000000000000000000000000000000000000
0000000000000000000000000000000000000000000000000000000000000000000000
0000000000000000000000000000000000000000000000000000000000000000000000
0000000000000000000000000000000000000000000000000000000000000000000000
0000000000000000000000000000000000000000000000000000000000000000000000
0000000000000000000000000000000000000000000000000000000000000000000000
0000000000000000000000000000000000000000000000000000000000000000000000
0000000000000000000000000000000000000000000000000000000000000000000000
0000000000000000000000000000000000000000000000000000000000000000000000
0000000000000000000000000000000000000000000000000000000000000000000000
0000000000000000000000000000000000000000000000000000000000000000000000
0000000000000000000000000000000000000000000000000000000000000000000000
0000000000000000000000000000000000000000000000000000000000000000000000
0000000000000000000000000000000000000000000000000000000000000000000000
0000000000000000000000000000000000000000000000000000000000000000000000
0000000000000000000000000000000000000000000000000000000000000000000000
0000000000000000000000000000000000000000000000000000000000000000000000
0000000000000000000000000000000000000000000000000000000000000000000000
0000000000000000000000000000000000000000000000000000000000000000000000
0000000011111111111110111000111111100111001110001111111001110000000011
1111100111111110001111111000111111100111000000001111111000000000001111
1111111110111001111111100111001110011111111001110000000111001110011100
1110011111111001111111100111000000011100111000000000001110011100111011
1001110000000111001110011100000001110000000111001110011100111001110000
0001110000000111000000011100111000000000001110011100111011100111000000
0111111110011111100001110000000111111110011100111001110111100111111000
0111000000011100111000000000001110011100111011100111000000011111111001
1111100001110000000111111110011100111001110111100111111000011100000001
1100111000000000001110011100111011100111000000011100111001110000000111
0000000111001110011100111001110011100111000000011100000001110011100000
0000001110011100111011100111111110011100111001111111100111111110011100
1110011100111001111111100111111110011111111001111111100000000000111001
1100111011100011111110011100111000111111100111111110011100111001110011
1000111111100011111110011111111000111111100000000000000000000000000000
0000000000000000000000000000000000000000000000000000000000000000000000
0000000000000000000000000000000000000000000000000000000000000000000000
0000000000000000000000000000000000000000000000000000000000000000000000
0000000000000000000000000000000000000000000000111111110011111110000000
0011111110111001111111111111000111111100111111110001111111000000000000
0000000000000000000000000000000000111111110111111110000000011111111011
1001110011100111001110011100111001110011111111000000000000000000000000
0000000000000000000000111001110111000000000000011100000011100111001110
0111001110011100111001110011100000000000000000000000000000000000000000
0000000000111001110111111000000000011111111011100111001110011100111001
1100111001110011111100000000000000000000000000000000000000000000000011
1001110111111000000000001111111011100111001110011100111001110011100111
0011111100000000000000000000000000000000000000000000000011100111011100
0000000000000000111011100111001110011100111001110011100111001110000000
0000000000000000000000000000000000000000000011111111011111111000000001
1111111011100111001110011100111111110011100111001111111100000000000000
0000000000000000000000000000000011111111001111111000000001111111101110
0111001110011100011111110011100111000111111100000000000000000000000000
0000000000000000000000000000000000000000000000000000000000000000000000
0000000000000000000000000000000000000000000000000000000000000000000000
0000000000000000000000000000000000000000000000000000000000000000000000
0000000000000000000000000000000000000000000000000000000000000000000000
0000000000000000000000000000000000000000000000000000000000000000000000
0000000000000000000000000000000000000000000000000000000000000000000000
0000000000000000000000000000000000000000000000000000000000000000000000
0000000000000000000000000000000000000000000000000000000000000000000000
0000000000000000000000000000000000000000000000000000000000000000000000
0000000000000000000000000000000000000000000000000000000000000000000000
0000000000000000000000000000000000000000000000000000000000000000000000
0000000000000000000000000000000000000000000000000000000000000000000000
0000000000000000000000000000000000000000000000000000000000000000000000
0000000000000000000000000000000000000000000000000000000000000000000000
0000000000000000000000000000000000000000000000000000000000000000000000
0000000000000000000000000000000000000000000000000000000000000000000000
0000000000000000000000000000000000000000000000000000000000000000000000
0000000000000000000000000000000000000000000000000000000000000000000000
0000000000000000000000000000000000000000000000000000000000000000000000
0000000000000000000000000000000000000000000000000000000000000000000000
0000000000000000000000000000000000000000000000000000000000000000000000
0000000000000000000000000000000000000000000000000000000000000000000000
0000000000000000000000000000000000000000000000000000000000000000000000
0000000000000000000000000000000000000000000000000000000000000000000000
0000000000000000000000000000000000000000000000000000000000000000000000
00000000000000000000000000000000000000