P1
# CREATOR: GIMP PNM Filter Version 1.1
128 96
0000000000000000000000000000000000000000000000000000000000000000000000
0000000000000000000000000000000000000000000000000000000000000000000000
0000000000000000000000000000000000000000000000000000000000000000000000
0000000000000000000000000000000000000000000000000000000000000000000000
0000000000000000000000000000000000000000000000000000000000000000000000
0000000000000000000000000000000000000000000000000000000000000000000000
0000000000000000000000010010000000000000000000000000000000000000000000
0000000000000000000000000000000000000000000000000000000000000000000000
0000000000010010000000000000000000000000000000000000000000000000000000
0000000000000000000000000000000000000000000000000000000000000000000011
1110000000000000000000000000000000000000000000000000000000000000000000
0000000000000000000000000000000000000000000000000000000001000000000000
0000000000000000000000000000000000000000000000000000000000000000000000
0000000000000000000000000000000000000000000000000000000000000000000000
0000000000000000000000000000000000000000000000000000000000000000000000
0000000000000000000000000000000001111000000000000000000000000000000000
0000000000000000000000000000000000000000000000000000000000000000000000
0000000000000000000001001000000000000000000000000000000000000000000000
0000000000000000000000000000000000000000000000000000000000000000000000
0000000000001000000000000000000000000000000000000000000000000000000000
0000000000000000000000000000000000000000000000000000000000000000000000
1000000000000000000000000000000000000000000000000000000000000000000000
0000000000000000000000000000000000000000000000000000000111100000000000
0000000000000000000000000000000000000000000000000000000000000000000000
0000000000000000000000000000000000000000000000000000000000000000000000
0000000000000000000000000000000000000000000000000000000000000000000000
0000000000000000000000000000000111000000000000000000000000000000000000
0000000000000000000000000000000000000000000000000000000000000000000000
0000000000000000000100100000000000000000000000000000000000000000000000
0000000000000000000000000000000000000000000000000000000000000000000000
0000000100100000000000000000000000000000000000000000000000000000000000
0000000000000000000000000000000000000000000000000000000000000000010010
0000000000000000000000000000000000000000000000000000000000000000000000
0000000000000000000000000000000000000000000000000000001100000000000000
0000000000000000000000000000000000000000000000000000000000000000000000
0000000000000000000000000000000000000000000000000000000000000000000000
0000000000000000000000000000000000000000000000000000000000000000000000
0000000000000000000000000000000000000000000000000000000000000000000000
0000000000000000000000000000000000000000000000000000000000000111111110
0000000000000000000000000000000000000000000000000000000000000000000000
0000000000000000000000000000000000000000000000000110011011000000000000
0000000000000001111111111111000110000011000001100001111000001100000000
0000000000000000000000000000000000000100001001000000000000000000000000
0001111111111111000110000011000001100011111000001101000000000000000000
0000000000000000000000000100001001000000000000000000100000000110000000
0011011000111000001100000111110000001111110000000000000000000000000000
0000000000000100011000000000000000000001101000000110010101001100100001
0100011011011111111100111111101000000000000000000000000000000000000000
0011110000000000000000000001101000000110111111001100000000110011001111
1001111100111111011000000000000000001000000000000000000000000000000000
0000000000000001101000000110111111001100100001111011011101000011110001
1111110000000000000011111000000000000000000000000000000000000000000000
0000110000000110111111011001100001110011001100000011111000111110000000
0000000101010000000000000000000000000000000000000000000000000000000000
0110111111001100011110001111110111100111111111011101100000000000010100
1000000000000000000000001111100000000000000000011111100000011001111101
1100011110001111110111100111111111001101100000000000010100100000000000
0000000000010000000000000000000000000100100000011000000000110111100000
1100111111110110000011001111100000000000010110100000000000000000000001
0000000000000000000000000100100000011010101001110111100000110011111110
1110010011011111100000000000000011000000000000000000000001100000000000
0000000000000111000000011111111111110001100000110011011111111011101100
1101100000000000000000000000000000000000000001111110000000000000000000
0000000000011110111101000011000000111111011111111001001101110110000000
0000100000000000000000000000000000000000000000000000000000011110000000
0000000000000110000000111111111001111000001100111000000000000111000110
0000000000000000000000000010000000000000000000010010000001110000111110
0011111100111111101111111111111111111100000000000100000010000000000000
0000000000000010000000000000000000010010000001111000111111000111111011
1111000111111111111111111000000000000100000010000000000000000000000000
0010000000000000000000010010000001101100110000011110001111101111100011
1011111011110110000000000100000010000000000000000000100111111000000000
0000000000001100000001101100110000011110001111101111110001101111001111
0110000000000110000110000000000000000000000100001000000000000000000000
0000000001111110110111000110011011110001100110011000001100000000000000
0001111000000000000111000000000100001000000000000000000001101000000111
1110110010001110011011110001110111011000101100000000000000000000000000
0000011100100000000000001000000000000000000001001000000110001100000001
1110000100000011111001100110110000011000000000000000000000000001010010
0000000000000000000000000000000001001000000111000101011010111011111101
0011111101001111101000011000000000000000000000000001010010000000000000
0000000000000000000000110000000111100011111111011111111111000111111000
0111001101100000000000000111111000000001010010000000000000100000000000
0000000000000000000011111101110110001111110111001111110000111000011110
0000000000000100011000000001110110000000010000100000000000000000000000
0000000001111100110111000111111011001111100000110000001111000000000000
0000001000000000000000000000010000100000000000000000000000000000001111
1000111101100011101111011100011001111011000110000000000000000000100000
0000000010000000010000100000000000000000000000000000000111000111100110
0001001111001100011011110011000011000000000000000000100000000000001000
0001111111000000000000000000000000000000000000001111011000000000111111
0000000001111100000000000000000000011111000000000000001000000001000000
0000000000000000000000000000000100001111011100010000111111000000001111
1110001000000000000000000000000000100111111000000001000000000000000000
0000000110000000000110001100111110011000110011110110000110111100110000
0000000000000000000000000100001000000000000000000000000000000000010100
0000001110111000111100011101010011100111101100011001110100000000000000
0111000000000100001000000000011100000000000000000000000011100000011111
0000000000011111000000000111111000000000111110000000000011110010000000
0000001000000001110010000000000000000000011000100000011110111110011001
1110111100001111010100001111111100000000000100100010000000000000000000
0001010010000000000000000000010000100000001100111111011000011011110001
1110000110001111111100000000000100100010000000000000000000000101001000
0000000000000000000000000001111111000000011111111100111100011000000011
1100011000000000000100100010000000000000000000000101001000000000000000
0000011110000001111111001000011111111110111100011000000011111001110000
0000000111111110000000000000000000000111011000000000000000000000000000
0000011011001111011001111000111100000000111100111111111000000000010000
0010000000000000000000000000000000000000000000000001111000000001001100
1110011101110001111100000100011100111111111000000000000000000000000000
0000000000000001000000000000000000000000000000000000000000000001100110
0011111100011110000000000000000000000000000000000000000000000000000000
0111011000000000000000000001111000000110110101101001100110101111101001
1111000110101010101000000000011101110000000000000000000000010100100000
0000000000000000000000000111111111111101101110010011001101100110111111
1111111000000000011001001000000000000000000000010100100000000000000000
0000000000000110010101011100011110001110001100000110110101010101100000
0000010011001000000000000000000000010100100000000000000000000000000000
0110000000001100011110001100011000000110011000000001100000000001001000
1000000000000000000000011101100000000000000000000000000000011011111100
1101111111110000001100000000110011111101100000000001001001100000000000
0000000000000111000000000000000000000000000000011001111101100111111111
1000011100000000110011111001100000000000111011100000000000000000000000
0000000000000000000000000000000000011011111100110110001110111100111101
1000111011111101100000000000000000000000000000000000000000000010000000
0000000000000000100000011011111101110110001100111101111001100011001111
1101100000000000000000000000000000000000000011100110000000000000000000
0100100000011011111100110110011011001111000001111011101111110110000000
0000000000000000000000000000000100011100000000000000000000010100000001
1001110100100111111001001110100001101001001110100110000000000000000000
0000000000000000000100010000000000000000000000001000000001100000000111
0111111000001100110000000011000000000110000000000000000000000000000000
0000000100010010000000000000000001111110000001111111111110011101000100
1111011111110011111111111110000000000000000000000000000000000000011111
1110000000000000000000000000000001111111111111011000001110111100111111
1011111111111110000000000000000000000000000000000000010000001000000000
0000000000000000000000000000000000000000000000000000000000000000000000
0010000000000000000000000000000000000000000000000000000000000000000001
1010000000000000000000000000000000000000000000000000000000000000000000
0000000000000000000000000000000000000000000000000000000001001000000000
0000000000000000000000000000000000000000000000000000000000000000000000
0000000000000000000000000000000000000000000001001000000000000000000000
0000000000000000000000000000000000000000000000000000000000000000000000
0000000000000000000000000000000000110000000000000000000000000000000000
0000000000000000000000000000000000000000000000000000000000000000000000
0000000000000000000000110000000000000000000000000000000000000000000000
0000000000000000000000000000000000000000000000000000000000000000000000
0000000001101000000000000000000000000000000000000000000000000000000000
0000000000000000000000000000000000000000000000000000000000000000000110
1000000000000000000000000000000000000000000000000000000000000000000000
0000000000000000000000000000000000000000000000000000000110100000000000
0000000000000000000000000000000000000000000000000000000000000000000000
0000000000000000000000000000000000000000000011000000000000000000000000
0000000000000000000000000000000000000000000000000000000000000000000000
0000000000000000000000000000000000000000000000000000000000000000000000
0000000000000000000000000000000000000000000000000000000000000000000000
0000000000000000000111100000000000000000000000000000000000000000000000
0000000000000000000000000000000000000000000000000000000000000000000000
0000000100000000000000000000000000000000000000000000000000000000000000
0000000000000000000000000000000000000000000000000000000000000001111110
0000000000000000000000000000000000000000000000000000000000000000000000
0000000000000000000000000000000000000000000000000000000000000000000000
0000000000000000000000000000000000000000000000000000000000000000000000
0000000000000000000000000000000000000000100000000000000000000000000000
0000000000000000000000000000000000000000000000000000000000000000000000
0000000000000000000000000000100010000000000000000000000000000000000000
0000000000000000000000000000000000000000000000000000000000000000000000
0000000000000000100010000000000000000000000000000000000000000000000000
0000000000000000000000000000000000000000000000000000000000000000000000
0000100010000000000000000000000000000000000000000000000000000000000000
0000000000000000000000000000000000000000000000000000000000000001110000
0000000000000000000000000000000000000000000000000000000000000000000000
0000000000000000000000000000000000000000000000000000000000000000000000
0000000000000000000000000000000000000000000000000000000000000000000000
0000000000000000000000000000000000000000000000000000000000000000000000
00000000000000000000000000000000000000