P1
# CREATOR: GIMP PNM Filter Version 1.1
128 96
0000000000000000000000000000000000000000000000000000000000000000000000
0000000000000000000000000000000000000000000000000000000000000000000000
0000000000000000000000000000000000000000000000000000000000000000000000
0000000000000000000000000000000000000000000000000000000000000000000000
0000000000000000000000000000000000000000000000000000000000000000000000
0000000000000000000000000000000000000000000000000000000000000000000000
0000000000000000000000000000000000000000000000000000000000000000000000
0000000000000000000000000000000000000000000000000000000000000000000000
0000000001010101000000000000000000000000000000000000000000000000000000
0000000000000000000000000000000000000000000000000000000000000111111111
1111111111000000000000000000000000000000000000000000000000000000000000
0000000000000000000000000000000000000000000001111111111111111111111111
1100000000000000000000000000000000000000000000000000000000000000000000
0000000000000000000000000000000111111111111011010111111111111110000000
0000000000000000000000000000000000000000000000000000000000000000000000
0000000000000000111111111100000000000000000111111111100000000000000000
0000000000000000000000000000000000000000000000000000000000000000000000
0011111111000000000000000000000000011111111000000000000000000000000000
0000000000000000000000000000000000000000000000000000000000111111100000
0000000000000000000000000011111110000000000000000000000000000000000000
0000000000000000000000000000000000000000000001111110000000000000000000
0000000000000000111111000000000000000000000000000000000000000000000000
0000000000000000000000000000000111111000000000000000000000000000000000
0000001111110000000000000000000000000000000000000000000000000000000000
0000000000000000001111100000000000001110000000000000000000000000001111
1000000000000000000000000000000000000000000000000000000000000000000000
0000011111000000000000001110000000000000000000000000000111110000000000
0000000000000000000000000000000000000000000000000000000000000111110000
0000000000001110000000000000000000000000000001111000000000000000000000
0000000000000000000000000000000000000000000000000111100000000000000000
1110000000000000000000000000000000111110000000000000000000000000000000
0000000000000000000000000000000000011111000000000000000000000000000000
0000000011100000000000011111000000000000000000000000000000000000000000
0000000000000000000000011110000000000000000000000000000000000000011110
0000000000001111000000000000000000000000000000000000000000000000000000
0000000001111100000000000000000000000000000000000000001110000000000000
0111100000000000000000000000000000000000000000000000000000000000000111
1000000000000000000000000000000001000000001100000000000000001111000000
0000000000000000000000000000000000000000000000000000001111000000000000
0000000000000000000011100000000000000000000000000111100000000000000000
0000000000000000000000000000000000000000011110000000000001000000000000
0000000011100000000000000000000000000011110000000000000000000000000000
0000000000000000000000000000011100000000000011100000000000000000001110
0000000000000000000000000001110000000000000000000000000000000000000000
0000000000000000111100000000000001110000000000000000001010000000000000
0000000000000001111000000000000000000000000000000000000000000000000000
0001111000000000000011100000000000000000000000000000000000000000000000
0000111100000000000000000000000000000000000000000000000000000111000000
0000000001010000000000000000000000000000000000001000000000000001110000
0000000000000000000000000000000000000000000000001111000000000000000000
0000000000000000000000000000000000001110000000000001111000000000000000
0000000000000000000000000000000000001110000000000000000000000000000000
0000000000000000000000011110000000000000111000000000000000000000000000
0000000000000000000000011100000000000000000000000000000001111111111100
0000000000001110000000000000111100000000000000000000000000000000000000
0000000000011100000000000000000000000000011111111111111111110000000000
1000000000000000011100000000000000000000000000000000000000000000000011
1100000000000000000000000001111111111111111111111100000000000000000000
0000011110000000000000000000000000000000000000000000000011100000000000
0000000000000111111110000000000111111111000000000000000000000000111000
0000000000000000000000000000000000000000000111100000000000000000000001
1111110000000000000000011111110000000000000000000000111100000000000000
0000000000000000000000000000000111000000000110000000000011111100000000
0000000000000111111000000000000011000000011100000000000000000000000000
0000000000000000000111000000000111000000000111110000000000000000000000
0001111100000000000111000000011100000000000000000000000000000000000000
0000001111000000000111000000001111100000000000000000000000000001111000
0000000111000000011110000000000000000000000000000000000000000000111000
0000000111000000011110000000000000000000000000000000111100000000011100
0000001110000000000000000000000000000000000000000000111000000000000000
0000111100000000000000000000000000000000011110000000000000000000111000
0000000000000000000000000000000000000000111000000000000000000111100000
0000000000000000000000000000001111000000000000000000111000000000000000
0000000000000000000000000000111000000000000000001111000000000000000000
0000000000000000000111100000000000000000111000000000000000000000000000
0000000000000001111000000000000000001111000000000000000000000000000000
0000000011100000000000000000111100000000000000000000000000000000000000
0001110000000000000000011110000000000000000000000000000000000000001111
0000000000000000011100000000000000000000000000000000000000000111000000
0000000000011100000000000000000000000000000000000000000111000000000000
0000011100000000000000000000000000000000000000000111000000000000000011
1100000000000000000000000000000000000000000111100000000000000001110000
0000000000000000000000000000000000000111000000000000000011100000000000
0000000000000000000000000000000011100000000000000001110000000000000000
0000000000000000000000000111000000000000000111000000000000000000000000
0000000000000000000001110000000111000001110000000000000000000000000000
0000000000000111000000000000000111000000000000000000000000000000000000
0000000001110000000111000001110000000000000000000000000000000000000000
0111000000000000000111000000000000000000001010100000000000000000000111
0000000111000001110000000000000000000000000000000000000000011100000000
0000001110000000000000000111111111111111000000000000000111100000011100
0001110000000000000000000000000000000000000000011100000111000000111000
0000000000111111111111111111111000000000000011100000000000000111000000
0000000000000000000000000000000000011100000111000000111000000000001111
1111111010111111111110000000000011100000000000000111000000000000000000
0000000000000000000000011100000111000000111000000000111111110000000000
0001111111100000000011100000000000000111000000000000000000000000000000
0000000000011110000111000000111000000001111110000000000000000000111111
0000000011100000000000000111000000000000000000000000000000000000000000
1100000000000001111000000011111000000000000000000000001111110000001111
0000000000001110000000000000000000000000000000000000000000111000000000
0000111000001111100000000000000000000000000011111000001110000000000000
1110000000000000000000000000000000000000000000111000000000000011100001
1111000000000000000000000000000001111100000111000000000000111000000000
0000000000000000000000000000000000111000000000000011100001111000000000
0000000000000000000000111110001110000000000000111000000000000000000000
0000000000000000000000111000000000000111100011110000000000000000000000
0000000000011110001110000111000000111000000000000000000000000000000000
0000000000111100000000000011100111100000000000000000000000000000000000
1111001110000111000001110000000000000000000000000000000000000000000001
1100000000000011101111000000000000000000000011100000000000011110111000
0111000001110000000000000000000000000000000000000000000001110000000000
0011111110000000000000000000000011100000000000001111111000001100000111
0000000000000000000000000000000000000000000001111000000000001111110000
0000000000000000000011100000000000000111111000000000001111000000000000
0000000000000000000000000000000000111000000000000111110000000000010000
0000000011100000000000000111110000000000001110000000000000000000000000
0000000000000000000000111100000000000111100000000000111000000000000000
0000000000000011110000000000011110000000000000000000000000000000000000
0000000000011100000000000111100000000000111000000000000000000000000000
0011110000000000011100000000000000000000000000000000000000000000000001
1100000000000011000000000000111000000000000000000000000000000110000000
0000011100000000000000000000000000000000000000000000000001111000000000
0011000000000000011000000000000000000000000000000110000000000011110000
0000000000000000000000000000000000000000000000111100000000000100000000
0000000000000000000000000000000000000010000000000011111000000000000000
0000000000000000000000000000000000011100000000000000000000000000000000
0000000000000000000000000000000000000001111100000000000000000000000000
0000000000000000000000011110000000000000000000000000000000000000000000
0000000000000000000000000000011110000000000000000000000000000000000000
0000000000001111000000000000000000000000000000000000000000000000000000
0000000000000000011111000000000000000000000000000000000000000000000000
1111000000000000000000000000000000000000000000000000000000000000000000
0000000111100000000000000000000000000000000000000000000000011110000000
0000101000000000000000000000000000000000001100000000000000000000011111
0000000000000000000000000000000000000000000000001111000000000001100000
0000000000000000000000000000001110000000000000000000000111100000000000
0000000000000000000000000000000000000111100000000011110000000000000000
0000000000000000001110000000000000000000000111110000000000000000000000
0000000000000000000000000011110000000001100000000000000000000000000000
0000011100000000011111111111111111111000000000000000000000000000000000
0000000000000011111000000000100000000000000000111000000000000000010000
0000111111111111111111111100000000000000000000000000000000000000000000
0000111100000000000000000000000000111000000000000000000000000111111111
1111111111111100000000000000000000000000000000000000000000000011111000
0000000000000000000000111000000000000000000000001111000000000000000000
0000000000000000000000000000000000000000000000000000111100000000000000
0000000000111000000000000000000000011111000000000000000000000000000000
0000000000000000000000000000000000000000011111000000000000000000000000
0000000000000000000001111100000000000000000000000000000000000000000000
0000000000000000000000000000001111100000000000000000000000000000000000
0000000011111000000000000000000000000000000000000000000000000000000000
0000000000000000000111111000000000000000000000000000000000000000111111
0000000000000000000000000000000000000000000000000000000000000000000000
0000000001111110000000000000000000000000000000000011111100000000000000
0000000000000000000000000000000000000000000000000000000000000000000011
1111100000000000000000000000000000001111111000000000000000000000000000
0000000000000000000000000000000000000000000000000000000000111111110000
0000000000000000000001111111100000000000000000000000000000000000000000
0000000000000000000000000000000000000000000000001111111111000000000000
0000001111111110000000000000000000000000000000000000000000000000000000
0000000000000000000000000000000000000011111111111110101010111111111111
1000000000000000000000000000000000000000000000000000000000000000000000
0000000000000000000000000000011111111111111111111111111100000000000000
0000000000000000000000000000000000000000000000000000000000000000000000
0000000000000000000001111111111111111111000000000000000000000000000000
0000000000000000000000000000000000000000000000000000000000000000000000
0000000000000010101010100000000000000000000000000000000000000000000000
0000000000000000000000000000000000000000000000000000000000000000000000
0000000000000000000000000000000000000000000000000000000000000000000000
0000000000000000000000000000000000000000000000000000000000000000000000
0000000000000000000000000000000000000000000000000000000000000000000000
0000000000000000000000000000000000000000000000000000000000000000000000
0000000000000000000000000000000000000000000000000000000000000000000000
0000000000000000000000000000000000000000000000000000000000000000000000
00000000000000000000000000000000000000