P1
# CREATOR: GIMP PNM Filter Version 1.1
128 96
0000000000000000000000000000000000000000000000000000000000000000000000
0000000000000000000000000000000000000000000000000000000000000000000000
0000000000000000000000000000000000000000000000000000000000000000000000
0000000000000000000000000000000000000000000000000000000000000000000000
0000000000000000000000000000000000000111111000000000000000000000000000
0000000000000000000000000000000000000000000000000000000000000000000000
0000000000000000000000000111111100000000000000000000000000000000000000
0000000000000000000000000000000000000000000000000000000000000000000000
0000000000001111111100000000000000000000000000000000000000000000000000
0000000000000000000000000000000000000000000000000000000000000000000000
1111111100000000000000000000000000000000000000000000000000000000000000
0000000000000000000000000000000000000000000000000000000000111111110000
0000000000000000000000000000000000000000000000000000000000000000000000
0000000000000000000000000000000000011100000000111111110000000001100000
0000000000000000000000000000000000000000000000000000000000000000000000
0000000000000000000000111110000001111111111000000111110000000000000000
0000000000000000000000000000000000000000000000000000000000000000000000
0000000001111111101111111111111111001111111000000000000000000000000000
0000000000000000000000000000000000000000000000000000000000000000001111
1111111111111111111111111111111100000000000000000000000000000000000000
0000000000000000000000000000000000000000000000000000001111111111111111
1111111111111111111100000000000000000000000000000000000000000000000000
0000000000000000000000000000000000000000000111111111111111111111111111
1111111100000000000000000000000000000000000000000000000000000000000000
0000000000000000000000000000000111111111111111111111111111111111100000
0000000000000000000000000000000000000000000000000000000000000000000000
0000000000000000000011111111111111111111111111111111000000000000000000
0000000000000000000000000000000000000000000000000000000000000000000000
0000000001111111111111111111111111111111000000000000000000000000000000
0000000000000000000000000000000000000000000000000000000000000000000111
1111111111111111111111111110000000000000000000000000000000000000000000
0000000000000000000000000000000000000000000000000000001111111111111111
1111111111111111000000000000000000000000000000000000000000000000000000
0000000000000000000000000000000000000000001111111111111111111111111111
1111000000000000000000000000000000000000000000000000000000000000000000
0000000000000000000000000000001111111111111000000111111111111110000000
0000000000000000000000000000000000000000000000000000000000000000000000
0000000000000000011111111111110000000001111111111110000000000000000000
0000000000000000000000000000000000000000000000000000000000000000000000
0111111111111111100000000000111111111111111000000000000000000000000000
0000000000000000000000000000000000000000000000000000000001111111111111
1111000000000000111111111111111110000000000000000000000000000000000000
0000000000000000000000000000000000000000000001111111111111111100000000
0000111111111111111110000000000000000000000000000000000000000000000000
0000000000000000000000000000000001111111111111111100000000000001111111
1111111110000000000000000000000000000000000000000000000000000000000000
0000000000000000000001111111111111111100000000000001111111111111111000
0000000000000000000000000000000000000000000000000000000000000000000000
0000000001111111111111111100000000000011111111111111111000000000000000
0000000000000000000000000000000000000000000000000000000000000000000111
1111111111111100000000000011111111111111111000000000000000000000000000
0000000000000000000000000000000000000000000000000000000011111111111111
1110000000000011111111111111110000000000000000000000000000000000000000
0000000000000000000000000000000000000000000000000111111111111000000000
0111111111111000000000000000000000000000000000000000000000000000000000
0000000000000000000000000000000000000011111111111110000000111111111111
1000000000000000000000000000000000000000000000000000000000000000000000
0000000000000000000000000011111111111111000001111111111111000000000000
0000000000000000000000000000000000000000000000000000000000000000000000
0000000000000011111111111110000001111111111111000000000000000000000000
0000000000000000000000000000000000000000000000000000000000000000000000
0001111111111110000000111111111111000000000000000000000000000000000000
0000000000000000000000000000000000000000000000000000000000000111111111
1100000000111111111111000000000000000000000000000000000000000000000000
0000000000000000000000000000000000000000000000001111111111110000000011
1111111111000000000000000000000000000000000000000000000000000000000000
0000000000000000000000000000000000011111111111100000000001111111111110
0000000000000000000000000000000000000000000000000000000000000000000000
0000000000000000000000011111111111100000000001111111111111000000000000
0000000000000000000000000000000000000000000000000000000000000000000000
0000000000111111111111100000000000111111111111000000000000000000000000
0000000000000000000000000000000000000000000000000000000000000000000011
1111111111000000000000111111111111000000000000000000000000000000000000
0000000000000000000000000000000000000000000000000000000001111111101100
0000000000111011111110000000000000000000000000000000000000000000000000
0000000000000000000000000000000000000000000000111110000000000000000000
0001111100000000000000000000000000000000000000000000000000000000000000
0000000000000000000000000000000000011100000000000000000000000001100000
0000000000000000000000000000000000000000000000000000000000000000000000
0000000000000000000000000000000000000000000000000000000000000000000000
0000000000000000000000000000000000000000000000000000000000000000000000
0000000000000000000000000000000000000000000000000000000000000000000000
0000000000000000000000000000000000000000000000000000000000000000000000
0000000000000000000000000000000000000000000000000000000000000000000000
0000000000000000000000000000000000000000000000000000000000000000000000
0000000000000000000000000000000000000000000000000000000000000000000000
0000000000000000000000000000000000000000000000000000000000000000000000
0000000000000000000000000000000000000000000000000000000000000000000000
0000000000000000000000000000000000000000000000000000000000000000000000
0000000000000000000000000000000000000000000000000000000000000000000000
0000000000000000000000000000000000000000000000000000000000000000000000
0000000000000000000000000000000000000000000000000000000000000000000000
0000000000000000000000000000000000000000000000000000000000000000000000
0000000000000000000000000000000000000000110000000000000000000000000000
0000000000000000000000000000000000000000000000000000000000000000000000
0000000000000000000000000000110000000000000000000000000000000000000000
0000000000000000000000000000000000000000000000000000000000000000000000
0000000000000000110000001100000011001111110000111111110000001100000000
0011110000111111110011000011000000000000000000000000000000000000000000
0000110000001100000011001111110000111111110000001100000000001111000011
1111110011000011000000000000000000000000000000000000000000000011000000
1100000011000000001100110000000000001100000000110000110011000000001111
0011000000000000000000000000000000000000000000000011000000110000001100
0000001100110000000000001100000000110000110011000000001111001100000000
0000000000000000000000000000000000000011000000110011001100111111110011
1111110000001111111100110000110011000000001100111100000000000000000000
0000000000000000000000000011000000110011001100111111110011111111000000
1111111100110000110011000000001100111100000000000000000000000000000000
0000000000000011000000110011001100110000110000000011000000110000110011
0000110011000000001100001100000000000000000000000000000000000000000000
0011000000110011001100110000110000000011000000110000110011000011001100
0000001100001100000000000000000000000000000000000000000000001100000000
1100110000111111110011111111000000111111110000111100001100000000110000
1100000000000000000000000000000000000000000000001100000000110011000011
1111110011111111000000111111110000111100001100000000110000110000000000
0000000000000000000000000000000000000000000000000000000000000000000000
0000000000000000000000000000000000000000000000000000000000000000000000
0000000000000000000000000000000000000000000000000000000000000000000000
0000000000000000000000000000000000000000000000000000000000000000000000
0000000000000000000000000000000000000000000000000000000000000000000000
0000000000000000000000000000000000000000000000000000000000000000000000
0000000000000000000000000000000000000000000000000000000000000000000000
0000000000000000000000000000000000000000000000000000000000000000000000
0000000000000000000000000000000000000000000000000000000000000000000000
0000000000000000000000000000000000000000000000000000000000000000000000
0000000000000000000000000000000000000000000000000000000000000000000000
0000000000000000000000000000000000000000000000000000000000000000001111
1100001111111100000000000000000000000000000000000000000000000000000000
0000000000000000000000000000000000000000000000000000001111110000111111
1100000000000000000000000000000000000000000000000000000000000000000000
0000000000000000000000000000000000000000000000001100110000000000000000
0000000000000000000000000000000000000000000000000000000000000000000000
0000000000000000000000000000000000001100110000000000000000000000000000
0000000000000000000000000000000000000000000000000000000000000000000000
0000000000000000001111111100111111110000000000000000000000000000000000
0000000000000000000000000000000000000000000000000000000000000000000000
0000001111111100111111110000000000000000000000000000000000000000000000
0000000000000000000000000000000000000000000000000000000000000000110000
1100000000110000000000000000000000000000000000000000000000000000000000
0000000000000000000000000000000000000000000000000000110000110000000011
0000000000000000000000000000000000000000000000000000000000000000000000
0000000000000000000000000000000000000000111111110011111111000000000000
0000000000000000000000000000000000000000000000000000000000000000000000
0000000000000000000000000000111111110011111111000000000000000000000000
0000000000000000000000000000000000000000000000000000000000000000000000
0000000000000000000000000000000000000000000000000000000000000000000000
0000000000000000000000000000000000000000000000000000000000000000000000
0000000000000000000000000000000000000000000000000000000000000000000000
0000000000000000000000000000000000000000000000000000000000000000000000
0000000000000000000000000000000000000000000000000000000000000000000000
0000000000000000000000000000000000000000000000000000000000000000000000
0000000000000000000000000000000000000000000000000000000001111000000000
0000000000000000000000000000011000011000000000000000000000000000000000
0000000000000000000000000000000000000000000001111000000000000000000000
0000000000000000011000011000000000000000000000000000000000000000000000
0000000000000000000000000000000110000110011111111001111111100110000110
0000011000011001111110000111111110000000011001100000011001111110000111
1111100111111110000110000110011111111001111111100110000110000001100001
1001111110000111111110000000011001100000011001111110000111111110011111
1110000110000110011000011001100001100111100110000001111111100000000110
0110000000000000011001100000011000000001100110000000011000011000011000
0110011000011001100001100111100110000001111111100000000110011000000000
0000011001100000011000000001100110000000011000011000011000011001111111
1001111111100110011110000001100001100111111110011000000001111111100110
0110011001111111100110000000011111111000011000011001111111100111111110
0110011110000001100001100111111110011000000001111111100110011001100111
1111100110000000011111111000011000011001100000000110000000011000011000
0001100001100110000110011000000001100001100110011001100110000110011000
0000011000000000011000011001100000000110000000011000011000000110000110
0110000110011000000001100001100110011001100110000110011000000001100000
0000000111100001100000000111111110011000011000000110000110011111111001
1000000001111111100001100110000111111110011000000001111111100000011110
0001100000000111111110011000011000000110000110011111111001100000000111
1111100001100110000111111110011000000001111111100000000000000000000000
0000000000000000000000000000000000000000000000000000000000000000000000
00000000000000000000000000000000000000