P1
# CREATOR: GIMP PNM Filter Version 1.1
128 96
1111111111111111111111111111111111111111111111111111111111111111111111
1111111111111111111111111111111111111111111111111111111111111111111111
1111111111111111111111111111111111111111111110000000000000011111111111
1111111111111111111111111111111111111111111111111111111111111111111111
1111111111111111111111111111110000000000000000000111111111111111111111
1111111111111111111111111111111111111111111111111111111111111111111111
1111111111111111000000111111111111000001111111111111111111111111111111
1111111111111111111111111111111111111111111111111111111111111111111111
1110000111111111111111111000011111111111111111111111111111111111111111
1111111111111111111111111111111111111111111111111111111111100001111111
1111111111111110000111111111111111111111111111111111111111111111111111
1111111111111111111111111111111111111111111111000111111111111111111111
1111100011111111111111111111111111111111111111111111111111111111111111
1111111111111111111111111111111110001111111111111111111111111111000111
1111111111111111111111111111111111111111111111111111111111111111111111
1111111111111111111100011111111111111111111111111111100011111111111111
1111111111111111111111111111111111111111111111111111111111111111111111
1111111000111111111111111111111111111111110001111111111111111111111111
1111111111111111111111111111111111111111111111111111111111111111000111
1111111111111111111111111111111001111111111111111111111111111111111111
1111111111111111111111111111111111111111111111111111001111111111111111
1111111111111111111100111111111111111111111111111111111111111111111111
1111111111111111111111111111111111111110011111111111111111111111111111
1111111100011111111111111111111111111111111111111111111111111111111111
1111111111111111111111111100011111111111111111111111111111111111111001
1111111111111111111111111111111111111111111111111111111111111111111111
1111111111111100111111111111111111111111111111111111111100111111111111
1111111111111111111111111111111111111111111111111111111111111111111111
1000111111111111111111111111111111111111111100111111111111111111111111
1111111111111111111111111111111111111111111111111111111111100111111111
1111111110000001111111111111111110011111111111111111111111111111111111
1111111111111111111111111111111111111111111111100111111111111111100000
0000011111111111111110011111111111111111111111111111111111111111111111
1111111111111111111111111111111111001111111111111111000111110000111111
1111111110011111111111111111111111111111111111111111111111111111111111
1111111111111111111111001111111111111110001111111100011111111111111100
1111111111111111111111111111111111111111111111111111111111111111111111
1111111111001111111111111100111111111110001111111111111100111111111111
1111111111111111111111111111111111111111111111111111111111111111111100
1111111111111000111111111111001111111111111100111111111111111111111111
1111111111111111111111111111111111111111111111111111111100111111111111
1001111111111111000111111111111100111111111111111111111111111111111111
1111111111111111111111111111111111111111111101111111111111100111111111
1111100111111111111100111111111111111111111111111111111111111111111111
1111111111111111111111111111111001111111111111100111111111111110011111
1111111100111111111111111111111111111111111111111111111111111111111111
1111111111111111111001111111111111100111111111111110011111111111110011
1111111111111111111111111111111111111111111111111111111111111111111111
1111111101111111111111100111111111111110011111111111110011111111111111
1111111111111111111111111111111111111111111111111111111111111111110011
1111111111100111111111111110011111111111110011111111111111111111111111
1111111111111111111111111111111111111111111111111111110011111111111110
0111111111111100111111111111110011111111111111111111111111111111111111
1111111111111111111111111111111111111111110011111111111111001111111111
1100111111111111110011111111111111111111111111111111111111111111111111
1111111111111111111111111111110011111111111111000111111111100111111111
1111110011111111111111111111111111111111111111111111111111111111111111
1111111111111111110011111111111111100011111110000111111111111111001111
1111111111111111111111111111111111111111111111111111111111111111111111
1111111001111111111111110001111110011111111111111110011111111111111111
1111111111111111111111111111111111111111111111111111111111111111100111
1111111111111001111110011111111111111110011111111111111111111111111111
1111111111111111111111111111111111111111111111111111100111111111111111
0011111111001111111111111100011111111111111111111111111111111111111111
1111111111111111111111111111111111111111110011111111111111001111111100
1111111111111100111111111111111111111111111111111111111111111111111111
1111111111111111111111111111110011111111111110011111111110011111111111
1000111111111111111111111111111111111111111111111111111111111111111111
1111111111111111111001111111111110011111111110011111111111100111111111
1111111111111111111111111111111111111111111111111111111111111111111111
1111111000111111111100111111111111001111111111001111111111111111111111
1111111111111111111111111111111111111111111111111111111111111111110011
1111111000111111111111001111111110001111111111111111111111111111111111
1111111111111111111111111111111111111111111111111111111001111111100111
1111111111100111111100011111111111111111111111111111111111111111111111
1111111111111111111111111111111111111111111100111111000111111111111110
0111111100111111111111111111111111111111111111111111111111111111111111
1111111111111111111111111111111100011111001111111111111111001111000111
1111111111111111111111111111111111111111111111111111111111111111111111
1111111111111111111111000110001111111111111111001110001111111111111111
1111111111111111111111111111111111111111111111111111111111111111111111
1111111111100010011111111111111111100100011111111111111111111111111111
1111111111111111111111111111111111111111111111111111111111111111111111
0000011111111111111111100000111111111111111111111111111111111111111111
1111111111111111111111111111111111111111111111111111111111110011111111
1111111111110011111111111111111111111111111111111111111111111111111111
1111111111111111111111111111111111111111111111111111111111111111111111
1111111111111111111111111111111111111111111111111111111111111111111111
1111111111111111111111111111111111111111111111111111111111111111111111
1111111111111111111111111111111111111111111111111111111111111111111111
1111111111111111111111111111111111111111111111111111111111111111111111
1111111111111111111111111111111111111111111111111111111111111111111111
1111111111111111111111111111111111111111111111111111111111111111111111
1111111111111111111111111111111111111111111111111111111111111111111111
1111111111111111111111111111111111111111111111111111111111111111111111
1111111111111111111111111111111111111111111111111111111111111111111111
1111111111111111111111111111111111111111111111111111111111111111111111
1111111111111111111111111111111111111111111111111111111111111111111111
1111111111111111111111111111111111111111111111111111111111111111111111
1111111111111111111111111111111111111111111111111111111111111111111111
1111111111111111111111111111111111111111111111111111111111111111111111
1111111111111111111111111111111111111111111111111111111111111111111111
1111111111111111111111111111111111111111111111111111111111111111111111
1111111111111111111111111111111111111111111111111111111111111111111111
1111111111111111111111111111111111111111111111111111111111111111111111
1111111111111111111111111111111111111111111111111111111111111111111111
1111111111111111111111111111111111111111111111111111111111111111111111
1111111111111111111111111111111111111111111111111111111111111111111111
1111111111111111111111111111111111111111111111111111111111111111111111
1111111111111111111111111111111111111111111111111111100001111111111111
1111111111111111111111111111111111111111111111111111111111111111111111
1111111111111111111110000111100000000111100001111111111111111111111111
1111111111111111111111111111111111111111111111111111111111111111111111
1111111110000111100000000110011110011001111001100111111001100000011110
0000000111111001100000000111111001111111100111111110000000011111100111
1001100111111110011110011001111001100111111001100000011110000000011111
1001100000000111111001111111100111111110000000011111100111100110011111
1110011111111001111001100001100001111111100110011110011111111110011111
1111111001111111100111111110011110011111100111100110000000011001111111
1001111001100001100001111111100110011110011111111110011111111111100111
1111100111111110011110011111100111100110000000011001111111100111100110
0110011001100000000110000000011111100110000000011111100000000110000000
0110000000011111100111100111111110011001111111100111100110011001100110
0000000110000000011111100110000000011111100000000110000000011000000001
1111100111100111111110011001111001100111100110011001100110011110011001
1111111111100111111110011111100111111110011110011001111111111110011110
0111111110011001111001100111100110011001100110011110011001111111111110
0111111110011111100111111110011110011001111111111110011110011111111001
1110000111111000011110011001100110000000011000000001111110011000000001
1111100000000110011110011000000001111111100001111000000001111000011111
1000011110011001100110000000011000000001111110011000000001111110000000
0110011110011000000001111111100001111000000001111111111111111111111111
1111111111111111111111111111111111111111111111111111111111111111111111
1111111111111111111111111111111111111111111111111111111111111111111111
1111111111111111111111111111111111111111111111111111111111111111111111
1111111111111111111111111111111111111111111111111111111111111111111111
1111111111111111111111111111111111111111111111111111111111111111111111
1111111111111111111111111111111111111111111111111111111111111111111111
1111111111111111111111111111111111111111111111111111111111111111111111
1111111111111111111100111111111111111111111111111111111111111111111111
1111111111111111111111111111111111111111111111111111111111111111111111
1111111100111111111111111111111111111111111111111111111111111111111111
1111111111111111111111111111111111111111111111111111111111111111110011
1110011111100111111000000001100111100110011110011001111001100110011110
0110000000011111111111111111111111111111111111111111110011111001111110
0111111000000001100111100110011110011001111001100110011110011000000001
1111111111111111111111111111111111111111110011101000011000011111100111
1111100111100110000110011000011001111110000110011001111111111111111111
1111111111111111111111111111110011101000011000011111100111111110011110
0110000110011000011001111110000110011001111111111111111111111111111111
1111111111111111110011101001100110011111100111111110011110011001100001
1001100001100110011000011001100001111111111111111111111111111111111111
1111110011111001100110011111100111111110011110011001100001100110000110
0110011000011001100001111111111111111111111111111111111111111111001111
1001100110011111100111111110011110011001111001100111100110011001111001
1001111001111111111111111111111111111111111111111111001111100110011001
1111100111111110011110011001111001100111100110011001111001100111100111
1111111111111111111111111111111111111111001111100110011001111110011111
1111100001111001111001100111100110011001111001100000000111111111111111
1111111111111111111111111111001111100110011001111110011111111110000111
1001111001100111100110011001111001100000000111111111111111111111111111
1111111111111111111111111111111111111111111111111111111111111111111111
1111111111111111111111111111111111111111111111111111111111111111111111
1111111111111111111111111111111111111111111111111111111111111111111111
1111111111111111111111111111111111111111111111111111111111111111111111
1111111111111111111111111111111111111111111111111111111111111111111111
1111111111111111111111111111111111111111111111111111111111111111111111
1111111111111111111111111111111111111111111111111111111111111111111111
1111111111111111111111111111111111111111111111111111111111111111111111
1111111111111111111111111111111111111111111111111111111111111111111111
1111111111111111111111111111111111111111111111111111111111111111111111
1111111111111111111111111111111111111111111111111111111111111111111111
1111111111111111111111111111111111111111111111111111111111111111111111
1111111111111111111111111111111111111111111111111111111111111111111111
1111111111111111111111111111111111111111111111111111111111111111111111
11111111111111111111111111111111111111