P1
# CREATOR: GIMP PNM Filter Version 1.1
128 96
0000000000000000000000000000000000000000000000000000000000000000000000
0000000000000000000000000000000000000000000000000000000000000000000000
0000000000000000000000000000000000000000000000000000000000000000000000
0000000000000000000000000000000000000000000000000000000000000000000000
0000000000000000000000000000000000000000000000000000000000000000000000
0000000000000000000000000000000000000000000000000000000000000000000000
0000000000000000000000000000000000000000000000000000000000000000000000
0000000000000000000000000000000000000000000000000000000000000000011011
0110110000000000000000000000000000000000000000000000000000000000000000
0000000000000000000000000000000000000000000000000000011111111111100000
0000000000000000000000000000000000000000000000000000000000000000000000
0000000000000000000000000000000000000000111111111111100000000000000000
0000000000000000000000000000000000000000000000000000000000000000000000
0000000000000000000000000000111111111111100000000000000000000000000000
0000000000000000000000000000000000000000000000000000000000000000000000
0000000000000000111111111111110000000000000000000000000000000000000000
0000000000000000000000000000000000000000000000000000000000000000000000
0000111111111111110000000000000000000000000000000000000000000000000000
0000000000000000000000000000000000000000000000000000000000000011111111
1111110000000000000000000000000000000000000000000000000000000000000000
0000000000000000000000000000000000000000000000000111111111111111000000
0000000000000000000000000000000000000000000000000000000000000000000000
0000000000000000000000000000000000000111111111111111000000000000000000
0000000000000000000000000000000000000000000000000000000000000000000000
0000001000000000000000000111111111111111000000000000000000110000000000
0000000000000000000000000000000000000000000000000000000000000011111000
0000000000000111111111111111100000000000000001111000000000000000000000
0000000000000000000000000000000000000000000000000011111100000000000000
0111111111111111100000000000000111111100000000000000000000000000000000
0010000000000000000000000000000000000111111111000000000001111111111111
1111111000000000001111111110000000000000000000000000000000011100000000
0000000000000000000000011111111111100000000111111111111111111111111100
0000111111111111000000000000000000000000011111111100000000000000000000
0000000000011111111111111000111111111111111111111111111111000111111111
1111100000000000000000000000111111111100000000000000000000000000000111
1111111111111111111111111111111111111111111111111111111111111111000000
0000000000000000111111111000000000000000000000000000000111111111111111
1111111111111111111111111111111111111111111111111111100000000000000000
0000111011011000000000000000000000000000001111111111111111111111111111
1111111111111111111111111111111111111111100000000000000000000011001100
1100000000000000000000000000000111111111111111111111111111111111111111
1111111111111111111111111111100000000000000000000011110111110000000000
0000000000000000000111111111111111111111111111111111111111111111111111
1111111111111111000000000000000000000011110111110000000000000000000000
0000000011111111111111111111111111111111111111111111111111111111111111
1110000000000000000000000001110111110000000000000000000000000000000111
1111111111111111111111111111111111111111111111111111111111111000000000
0000000000000000000011100000000000000000000000000000000111111111111111
1111111111111111111111111111111111111111111111110000000000000000000000
0000000000000000000000000000000000000000000011111111111111111111111111
1111111111111111111111111111111111110000000000000000000000000000000000
0000000000000000000000000000000001111111111111111111111111111111111111
1111111111111111111111100000000000000000000001111110011100000000000000
0000000000000000000001111111111111111111111111111111111111111111111111
1111111111000000000000000000000001111110111110000000000000000000000000
0000000000111111111111111111111111111111111111111111111111111111111000
0000000000000000000000111110011111000000000000000000000000000000000011
1111111111111111111111111111111111111111111111111111111100000000000000
0000000001110000000111000000000000000000000000000000000011111111111111
1111111111111111111111111111111111111111111110000000000000000000000110
0000000011000000000000000000000000000000000011111111111111111111111111
1111111111111111111111111111111110000000000000000000000111000000001100
0000000000000000000000000000000111111111111111111111111111111111111111
1111111111111111111110000000000000000000000111000000011100000000000000
0000000000000000000111111111111111111111111111111111111111111111111111
1111111110000000000000000000000011110000111100000000000000000000000000
0000000111111111111111111111111100000000011111111111111111111111000000
0000000000000000000011111111111000000000000000000000000000000000111111
1111111111111111111000000000000111111111111111111010000000000000000000
0000000001111111110000000000000000000000000000000000111111111111111111
1111100000000000000001111111111111101000000000000000000000000000000001
1111000000000000000000000000000000000101111111111111111111111100000000
0000000000111111111101000000000000000000000000000000000000000000000000
0000000000000000000001011111111111111111111111111000000000000000000011
1111110100000000000000000000000000000000000000000000110000000000000000
0000011111111111111111111111111111111000000000000000000001111110000000
0000000000000000000000000000000000000001110000000000000000000111111111
1111111111111111111111110000000000000000000000100000000000000000000000
0000000000000000000011111111110000000000000000000111111111111111111111
1111111111100000000000000000000000000000000000000000000000000000000000
0000000011111111110000000000000000000011111111111111111111111111111110
0000000000000000000000000000000000000000000000000000000000000000001111
1111100000000000000000000111111111111111111111111111111110000000000000
0000000000000000000000000000000000000000000000000000001110000111000000
0000000000000111111111111111111111111111111110000000000000000000000000
0000000000000000000000000000000000000000000100000011000000000000000000
0011111111111111111111111111111110000000000000000000000000000000000000
0000000000000000000000000000000000000111000000000000000000011111111111
1111111111111111111110000000000000000000000000000000000000000000000000
0000000000000000001111111111000000000000000000011111111111111111111111
1111111110000000000000000000000000000000000000000000000000000000000000
0000001111111111000000000000000000001111111111111111111111111111111000
0000000000000000000000000000000000000000000000000000000000000000111111
1110000000000000000000011111111111111111111111111111111000000000000000
0000000000000000000000000000000000000000000000000000110000000000000000
0000000000011111111111111111111111111111111100000000000000000000000100
0000000000000000000000000000000000000000010000000000000000000000000000
1111111111111111111111111111111100000000000000000000001110000000000000
0000000000000000000000000000000000000000000000000000000000000101111111
1111111111111111111110000000000000000000011111110000000000000000000000
0000000000000000000011110000000000000000000000000000000111111111111111
1111111111000000000000000000111111111100000000000000000000000000000000
0011110011111000000000000000000000000000000000111111111111111111111100
0000000000000001111111111111000000000000000000000000000000001111111111
1100000000000000000000000000000000111111111111111111111111000000000000
0011111111111111111000000000000000000000000000011111111101110000000000
0000000000000000000000111111111111111111111111100000000000111111111111
1111111110000000000000000000000000011101111001110000000000000000000000
0000000000011111111111111111111111111100000011111111111111111111111111
0000000000000000000000011000110000110000000000000000000000000000000001
1111111111111111111111111111111111111111111111111111111111100000000000
0000000000011100111001110000000000000000000000000000000001111111111111
1111111111111111111111111111111111111111111111100000000000000000000001
1100111001110000000000000000000000000000000000111111111111111111111111
1111111111111111111111111111111111100000000000000000000001111111111111
0000000000000000000000000000000000111111111111111111111111111111111111
1111111111111111111111000000000000000000000001111111111111000000000000
0000000000000000000000111111111111111111111111111111111111111111111111
1111111111000000000000000000000001111111111111000000000000000000000000
0000000000111111111111111111111111111111111111111111111111111111111100
0000000000000000000001110000000111000000000000000000000000000000000111
1111111111111111111111111111111111111111111111111111111100000000000000
0000000001100000000011000000000000000000000000000000000111111111111111
1111111111111111111111111111111111111111111110000000000000000000000000
0000000010000000000000000000000000000000001111111111111111111111111111
1111111111111111111111111111111111000000000000000000000000000000000000
0000000000000000000000000000011111111111111111111111111111111111111111
1111111111111111111111000000000000000000000011100011110000000000000000
0000000000000000111111111111111111111111111111111111111111111111111111
1111111111100000000000000000000111110111111000000000000000000000000000
0000111111111111111111111111111111111111111111111111111111111111111111
0000000000000000000011111111111000000000000000000000000000000111111111
1111111111111111111111111111111111111111111111111111111111000000000000
0000000111001110011100000000000000000000000000001111111111111111111111
1111111111111111111111111111111111111111111111100000000000000000011000
1110001100000000000000000000000000001111111111111111111111111111111111
1111111111111111111111111111111111100000000000000000011100111001110000
0000000000000000000000000111111111111111111111111111111111111111111111
1111111111111111111111100000000000000000011101111001110000000000000000
0000000000000011111111111111100111111111111111111111111111111110111111
1111111110000000000000000000011111110001100000000000000000000000000000
0001111111111111000000111111111111111111111111111000001111111111111000
0000000000000000001111110111100000000000000000000000000000000011111111
1100000000001111111111111111111111000000000111111111100000000000000000
0000000111100111110000000000000000000000000000000001111111100000000000
0011111111111111111100000000000001111111100000000000000000000000000000
0111110000000000000000000000000000000000111110000000000000000111111111
1111111000000000000000111110000000000000000000000000000000000000000000
0000000000000000000000000000011100000000000000000111111111111111000000
0000000000001110000000000000000000000000000000000000000000000000000000
0000000000000000000000000000000000000111111111111111000000000000000000
0000000000000000000000000000000000000000000000000000000000000000000000
0000000000000000000000000111111111111111000000000000000000000000000000
0000000000000000000000000000000000000000000000000000000000000000000000
0000000000000011111111111111000000000000000000000000000000000000000000
0000000000000000000000000000000000000000000000000000000000000000000000
0011111111111111000000000000000000000000000000000000000000000000000000
0000000000000000000000000000000000000000000000000000000000001111111111
1110000000000000000000000000000000000000000000000000000000000000000000
0000000000000000000000000000000000000000000000001111111111111100000000
0000000000000000000000000000000000000000000000000000000000000000000000
0000000000000000000000000000000000001111111111111000000000000000000000
0000000000000000000000000000000000000000000000000000000000000000000000
0000000000000000000000000111111111111000000000000000000000000000000000
0000000000000000000000000000000000000000000000000000000000000000000000
0000000000001111111111111000000000000000000000000000000000000000000000
0000000000000000000000000000000000000000000000000000000000000000000000
0000000000000000000000000000000000000000000000000000000000000000000000
0000000000000000000000000000000000000000000000000000000000000000000000
0000000000000000000000000000000000000000000000000000000000000000000000
0000000000000000000000000000000000000000000000000000000000000000000000
0000000000000000000000000000000000000000000000000000000000000000000000
0000000000000000000000000000000000000000000000000000000000000000000000
0000000000000000000000000000000000000000000000000000000000000000000000
0000000000000000000000000000000000000000000000000000000000000000000000
00000000000000000000000000000000000000